<svg xmlns="http://www.w3.org/2000/svg" xmlns:xlink="http://www.w3.org/1999/xlink" width="100" zoomAndPan="magnify" viewBox="0 0 75 74.999997" height="100" preserveAspectRatio="xMidYMid meet" version="1.0"><defs><clipPath id="31e45f6e53"><path d="M 0.648438 0.59375 L 74.351562 0.59375 L 74.351562 74.292969 L 0.648438 74.292969 Z M 0.648438 0.59375 " clip-rule="nonzero"/></clipPath><clipPath id="9468c5ad5c"><path d="M 37.5 0.59375 C 17.148438 0.59375 0.648438 17.089844 0.648438 37.441406 C 0.648438 57.792969 17.148438 74.292969 37.5 74.292969 C 57.851562 74.292969 74.351562 57.792969 74.351562 37.441406 C 74.351562 17.089844 57.851562 0.59375 37.5 0.59375 Z M 37.5 0.59375 " clip-rule="nonzero"/></clipPath></defs><g clip-path="url(#31e45f6e53)"><g clip-path="url(#9468c5ad5c)"><path fill="#ffffff" d="M 0.648438 0.59375 L 74.351562 0.59375 L 74.351562 74.292969 L 0.648438 74.292969 Z M 0.648438 0.59375 " fill-opacity="1" fill-rule="nonzero"/></g></g><path fill="#545454" d="M 28.5 1.703125 C 13.871094 5.65625 3.695312 16.753906 1.175781 31.554688 C -0.761719 42.988281 3.191406 55.179688 11.601562 63.589844 C 15.636719 67.710938 23.960938 72.332031 28.921875 73.257812 L 31.613281 73.847656 L 31.613281 47.53125 L 23.203125 47.53125 L 23.203125 37.441406 L 31.359375 37.441406 L 31.949219 30.964844 C 32.535156 23.988281 34.050781 20.539062 37.75 17.847656 C 39.597656 16.417969 41.363281 16.082031 46.578125 16 L 53.050781 16 L 53.304688 20.371094 L 53.558594 24.828125 L 49.351562 24.828125 C 44.054688 24.828125 42.542969 26.675781 42.542969 32.984375 L 42.542969 37.441406 L 53.558594 37.441406 L 53.050781 41.390625 C 52.210938 47.613281 52.296875 47.53125 47.167969 47.53125 L 42.542969 47.53125 L 42.542969 73.847656 L 45.652344 73.34375 C 47.417969 73.007812 51.203125 71.660156 54.144531 70.148438 C 68.1875 63.253906 76.511719 47.023438 73.820312 31.554688 C 70.121094 10.113281 49.015625 -3.761719 28.5 1.703125 Z M 28.5 1.703125 " fill-opacity="1" fill-rule="nonzero"/></svg>