<svg xmlns="http://www.w3.org/2000/svg" xmlns:xlink="http://www.w3.org/1999/xlink" width="100" zoomAndPan="magnify" viewBox="0 0 75 74.999997" height="100" preserveAspectRatio="xMidYMid meet" version="1.0"><path fill="#ffffff" d="M 74.171875 37.539062 C 74.171875 38.769531 74.113281 39.996094 73.996094 41.21875 C 73.878906 42.445312 73.703125 43.660156 73.46875 44.863281 C 73.234375 46.070312 72.941406 47.261719 72.59375 48.4375 C 72.242188 49.613281 71.839844 50.769531 71.378906 51.90625 C 70.921875 53.042969 70.40625 54.152344 69.839844 55.238281 C 69.277344 56.320312 68.660156 57.375 67.992188 58.398438 C 67.324219 59.417969 66.609375 60.40625 65.847656 61.355469 C 65.085938 62.308594 64.28125 63.21875 63.429688 64.085938 C 62.582031 64.957031 61.691406 65.78125 60.765625 66.558594 C 59.835938 67.339844 58.871094 68.070312 57.875 68.753906 C 56.875 69.4375 55.847656 70.070312 54.789062 70.648438 C 53.730469 71.226562 52.644531 71.753906 51.535156 72.222656 C 50.425781 72.695312 49.296875 73.109375 48.144531 73.464844 C 46.996094 73.820312 45.832031 74.121094 44.65625 74.359375 C 43.476562 74.601562 42.292969 74.78125 41.097656 74.902344 C 39.902344 75.019531 38.703125 75.082031 37.5 75.082031 C 36.300781 75.082031 35.101562 75.019531 33.90625 74.902344 C 32.710938 74.78125 31.527344 74.601562 30.347656 74.359375 C 29.167969 74.121094 28.007812 73.820312 26.855469 73.464844 C 25.707031 73.109375 24.578125 72.695312 23.46875 72.222656 C 22.359375 71.753906 21.273438 71.226562 20.214844 70.648438 C 19.15625 70.070312 18.128906 69.4375 17.128906 68.753906 C 16.128906 68.070312 15.167969 67.339844 14.238281 66.558594 C 13.308594 65.78125 12.421875 64.957031 11.570312 64.085938 C 10.722656 63.21875 9.917969 62.308594 9.15625 61.355469 C 8.394531 60.40625 7.679688 59.417969 7.011719 58.398438 C 6.34375 57.375 5.726562 56.320312 5.160156 55.238281 C 4.59375 54.152344 4.082031 53.042969 3.621094 51.90625 C 3.164062 50.769531 2.757812 49.613281 2.410156 48.4375 C 2.0625 47.261719 1.769531 46.070312 1.535156 44.863281 C 1.300781 43.660156 1.125 42.445312 1.007812 41.21875 C 0.890625 39.996094 0.832031 38.769531 0.832031 37.539062 C 0.832031 36.3125 0.890625 35.085938 1.007812 33.863281 C 1.125 32.636719 1.300781 31.421875 1.535156 30.21875 C 1.769531 29.011719 2.0625 27.820312 2.410156 26.644531 C 2.757812 25.46875 3.164062 24.3125 3.621094 23.175781 C 4.082031 22.039062 4.59375 20.929688 5.160156 19.84375 C 5.726562 18.761719 6.34375 17.707031 7.011719 16.683594 C 7.679688 15.664062 8.394531 14.675781 9.15625 13.726562 C 9.917969 12.773438 10.722656 11.863281 11.570312 10.996094 C 12.421875 10.125 13.308594 9.300781 14.238281 8.523438 C 15.167969 7.742188 16.128906 7.011719 17.128906 6.328125 C 18.128906 5.644531 19.15625 5.011719 20.214844 4.433594 C 21.273438 3.855469 22.359375 3.328125 23.46875 2.859375 C 24.578125 2.386719 25.707031 1.972656 26.855469 1.617188 C 28.007812 1.261719 29.167969 0.960938 30.347656 0.722656 C 31.527344 0.480469 32.710938 0.300781 33.90625 0.179688 C 35.101562 0.0625 36.300781 0 37.5 0 C 38.703125 0 39.902344 0.0625 41.097656 0.179688 C 42.292969 0.300781 43.476562 0.480469 44.65625 0.722656 C 45.832031 0.960938 46.996094 1.261719 48.144531 1.617188 C 49.296875 1.972656 50.425781 2.386719 51.535156 2.859375 C 52.644531 3.328125 53.730469 3.855469 54.789062 4.433594 C 55.847656 5.011719 56.875 5.644531 57.875 6.328125 C 58.871094 7.011719 59.835938 7.742188 60.765625 8.523438 C 61.691406 9.300781 62.582031 10.125 63.429688 10.996094 C 64.28125 11.863281 65.085938 12.773438 65.847656 13.726562 C 66.609375 14.675781 67.324219 15.664062 67.992188 16.683594 C 68.660156 17.707031 69.277344 18.761719 69.839844 19.84375 C 70.40625 20.929688 70.921875 22.039062 71.378906 23.175781 C 71.839844 24.3125 72.242188 25.46875 72.59375 26.644531 C 72.941406 27.820312 73.234375 29.011719 73.46875 30.21875 C 73.703125 31.421875 73.878906 32.636719 73.996094 33.863281 C 74.113281 35.085938 74.171875 36.3125 74.171875 37.539062 Z M 74.171875 37.539062 " fill-opacity="1" fill-rule="nonzero"/><path fill="#545454" d="M 37.5 0.140625 C 16.792969 0.140625 0 16.929688 0 37.640625 C 0 54.210938 10.746094 68.265625 25.644531 73.222656 C 27.519531 73.570312 28.207031 72.410156 28.207031 71.417969 C 28.207031 70.523438 28.171875 67.570312 28.15625 64.4375 C 17.722656 66.707031 15.523438 60.015625 15.523438 60.015625 C 13.816406 55.679688 11.355469 54.527344 11.355469 54.527344 C 7.953125 52.199219 11.613281 52.246094 11.613281 52.246094 C 15.378906 52.511719 17.363281 56.109375 17.363281 56.109375 C 20.707031 61.84375 26.136719 60.1875 28.273438 59.226562 C 28.609375 56.804688 29.582031 55.148438 30.65625 54.214844 C 22.324219 53.265625 13.570312 50.046875 13.570312 35.679688 C 13.570312 31.585938 15.035156 28.242188 17.433594 25.613281 C 17.046875 24.671875 15.761719 20.859375 17.800781 15.695312 C 17.800781 15.695312 20.949219 14.683594 28.113281 19.539062 C 31.105469 18.707031 34.3125 18.289062 37.5 18.273438 C 40.6875 18.289062 43.898438 18.707031 46.894531 19.539062 C 54.054688 14.683594 57.199219 15.695312 57.199219 15.695312 C 59.238281 20.859375 57.953125 24.675781 57.566406 25.617188 C 59.96875 28.242188 61.421875 31.589844 61.421875 35.683594 C 61.421875 50.085938 52.648438 53.257812 44.300781 54.1875 C 45.644531 55.347656 46.84375 57.632812 46.84375 61.132812 C 46.84375 66.148438 46.800781 70.1875 46.800781 71.421875 C 46.800781 72.417969 47.476562 73.589844 49.375 73.21875 C 64.269531 68.257812 75 54.203125 75 37.640625 C 75 16.929688 58.210938 0.140625 37.5 0.140625 " fill-opacity="1" fill-rule="nonzero"/></svg>