<svg xmlns="http://www.w3.org/2000/svg" xmlns:xlink="http://www.w3.org/1999/xlink" width="100" zoomAndPan="magnify" viewBox="0 0 75 74.999997" height="100" preserveAspectRatio="xMidYMid meet" version="1.0"><defs><clipPath id="c3b2dc98d7"><path d="M 37.5 0 C 16.789062 0 0 16.789062 0 37.5 C 0 58.210938 16.789062 75 37.5 75 C 58.210938 75 75 58.210938 75 37.5 C 75 16.789062 58.210938 0 37.5 0 Z M 37.5 0 " clip-rule="nonzero"/></clipPath><clipPath id="a1a078d59b"><path d="M 9.929688 27 L 45 27 L 45 65 L 9.929688 65 Z M 9.929688 27 " clip-rule="nonzero"/></clipPath></defs><g clip-path="url(#c3b2dc98d7)"><rect x="-7.5" width="90" fill="#dddddd" y="-7.5" height="89.999996" fill-opacity="1"/></g><path fill="#404247" d="M 39.820312 47.683594 C 36.519531 47.683594 33.289062 46.476562 30.855469 44.039062 C 29.496094 42.683594 29.496094 40.484375 30.851562 39.128906 C 32.207031 37.773438 34.40625 37.773438 35.761719 39.125 C 38.136719 41.496094 42.25 41.238281 44.9375 38.546875 L 55.652344 27.835938 C 57.085938 26.40625 57.902344 24.542969 57.902344 22.714844 C 57.902344 21.625 57.613281 20.042969 56.234375 18.664062 C 54.757812 17.183594 53.066406 16.941406 51.878906 17 C 50.132812 17.082031 48.421875 17.878906 47.0625 19.238281 L 40.914062 25.382812 C 39.480469 23.945312 33.578125 22.890625 31.980469 24.492188 L 42.144531 14.328125 C 44.730469 11.746094 48.066406 10.230469 51.546875 10.0625 C 55.179688 9.894531 58.585938 11.203125 61.136719 13.753906 C 63.527344 16.140625 64.84375 19.324219 64.84375 22.71875 C 64.84375 26.371094 63.28125 30.027344 60.554688 32.746094 L 49.84375 43.457031 C 47.042969 46.269531 43.390625 47.683594 39.820312 47.683594 Z M 39.820312 47.683594 " fill-opacity="1" fill-rule="nonzero"/><g clip-path="url(#a1a078d59b)"><path fill="#404247" d="M 34.960938 27.3125 C 38.257812 27.3125 41.488281 28.519531 43.929688 30.957031 C 45.289062 32.3125 45.285156 34.511719 43.929688 35.867188 C 42.574219 37.226562 40.375 37.226562 39.019531 35.867188 C 36.648438 33.5 32.53125 33.761719 29.84375 36.445312 L 19.128906 47.160156 C 17.699219 48.585938 16.878906 50.453125 16.878906 52.277344 C 16.878906 53.363281 17.167969 54.949219 18.546875 56.332031 C 20.023438 57.804688 21.71875 58.050781 22.902344 57.996094 C 24.648438 57.914062 26.359375 57.117188 27.722656 55.753906 L 33.859375 49.617188 C 35.296875 51.050781 41.199219 52.105469 42.796875 50.503906 L 32.632812 60.667969 C 30.050781 63.253906 26.710938 64.765625 23.234375 64.933594 C 19.601562 65.105469 16.195312 63.796875 13.640625 61.242188 C 11.25 58.855469 9.933594 55.671875 9.933594 52.277344 C 9.9375 48.625 11.496094 44.96875 14.222656 42.25 L 24.933594 31.539062 C 27.738281 28.730469 31.390625 27.3125 34.960938 27.3125 Z M 34.960938 27.3125 " fill-opacity="1" fill-rule="nonzero"/></g></svg>