<svg xmlns="http://www.w3.org/2000/svg" xmlns:xlink="http://www.w3.org/1999/xlink" width="100" zoomAndPan="magnify" viewBox="0 0 75 74.999997" height="100" preserveAspectRatio="xMidYMid meet" version="1.0"><path fill="#545454" d="M 74.992188 37.496094 C 74.992188 58.203125 58.203125 74.992188 37.496094 74.992188 C 16.785156 74.992188 -0.00390625 58.203125 -0.00390625 37.496094 C -0.00390625 16.785156 16.785156 -0.00390625 37.496094 -0.00390625 C 58.203125 -0.00390625 74.992188 16.785156 74.992188 37.496094 Z M 74.992188 37.496094 " fill-opacity="1" fill-rule="nonzero"/><path fill="#ffffff" d="M 23.335938 18.816406 L 52.410156 18.816406 C 55.171875 18.816406 57.429688 21.074219 57.429688 23.835938 L 57.429688 52.910156 C 57.429688 55.671875 55.171875 57.925781 52.410156 57.925781 L 23.335938 57.925781 C 20.574219 57.925781 18.3125 55.671875 18.3125 52.910156 L 18.3125 23.835938 C 18.3125 21.074219 20.574219 18.816406 23.335938 18.816406 Z M 46.808594 23.160156 C 45.839844 23.160156 45.046875 23.957031 45.046875 24.921875 L 45.046875 29.136719 C 45.046875 30.105469 45.839844 30.898438 46.808594 30.898438 L 51.226562 30.898438 C 52.195312 30.898438 52.988281 30.105469 52.988281 29.136719 L 52.988281 24.921875 C 52.988281 23.957031 52.195312 23.160156 51.226562 23.160156 Z M 53.007812 35.355469 L 49.5625 35.355469 C 49.890625 36.421875 50.066406 37.546875 50.066406 38.714844 C 50.066406 45.21875 44.621094 50.492188 37.910156 50.492188 C 31.195312 50.492188 25.75 45.21875 25.75 38.714844 C 25.75 37.546875 25.929688 36.421875 26.253906 35.355469 L 22.664062 35.355469 L 22.664062 51.878906 C 22.664062 52.734375 23.359375 53.429688 24.214844 53.429688 L 51.453125 53.429688 C 52.308594 53.429688 53.007812 52.734375 53.007812 51.878906 Z M 37.90625 30.675781 C 33.570312 30.675781 30.054688 34.082031 30.054688 38.289062 C 30.054688 42.492188 33.570312 45.898438 37.90625 45.898438 C 42.246094 45.898438 45.765625 42.492188 45.765625 38.289062 C 45.765625 34.082031 42.246094 30.675781 37.90625 30.675781 Z M 37.90625 30.675781 " fill-opacity="1" fill-rule="nonzero"/></svg>