<svg xmlns="http://www.w3.org/2000/svg" xmlns:xlink="http://www.w3.org/1999/xlink" width="100" zoomAndPan="magnify" viewBox="0 0 75 74.999997" height="100" preserveAspectRatio="xMidYMid meet" version="1.0"><defs><clipPath id="f3fe4b0315"><path d="M 2.113281 2.113281 L 72.886719 2.113281 L 72.886719 72.886719 L 2.113281 72.886719 Z M 2.113281 2.113281 " clip-rule="nonzero"/></clipPath><clipPath id="8db611dd9d"><path d="M 37.5 2.113281 C 17.957031 2.113281 2.113281 17.957031 2.113281 37.5 C 2.113281 57.042969 17.957031 72.886719 37.5 72.886719 C 57.042969 72.886719 72.886719 57.042969 72.886719 37.5 C 72.886719 17.957031 57.042969 2.113281 37.5 2.113281 Z M 37.5 2.113281 " clip-rule="nonzero"/></clipPath><clipPath id="fe6071f45e"><path d="M 0 37.5 C 0 58.210938 16.789062 75 37.5 75 C 58.210938 75 75 58.210938 75 37.5 C 75 16.789062 58.210938 0 37.5 0 C 16.789062 0 0 16.789062 0 37.5 Z M 0 37.5 " clip-rule="nonzero"/></clipPath></defs><g clip-path="url(#f3fe4b0315)"><g clip-path="url(#8db611dd9d)"><path fill="#ffffff" d="M 2.113281 2.113281 L 72.886719 2.113281 L 72.886719 72.886719 L 2.113281 72.886719 Z M 2.113281 2.113281 " fill-opacity="1" fill-rule="nonzero"/></g></g><g clip-path="url(#fe6071f45e)"><path fill="#545454" d="M 9.898438 0.824219 C 6.523438 1.800781 2.023438 6.523438 0.898438 10.199219 C -0.300781 14.175781 -0.375 59.773438 0.824219 63.976562 C 1.875 67.726562 6.148438 72.375 9.601562 73.648438 C 11.699219 74.398438 18.824219 74.625 37.875 74.625 C 62.175781 74.625 63.523438 74.550781 66.300781 73.050781 C 71.023438 70.574219 73.425781 67.050781 74.324219 61.199219 C 74.773438 58.199219 75 46.949219 74.851562 33.523438 C 74.625 11.25 74.625 10.800781 72.824219 7.726562 C 70.800781 4.273438 68.324219 2.175781 64.574219 0.898438 C 61.425781 -0.226562 13.648438 -0.226562 9.898438 0.824219 Z M 23.773438 16.648438 C 25.949219 18.675781 25.949219 21.523438 23.851562 23.773438 C 21.824219 25.949219 18.523438 26.023438 16.5 23.851562 C 14.550781 21.75 14.550781 18.898438 16.648438 16.726562 C 18.675781 14.550781 21.523438 14.550781 23.773438 16.648438 Z M 54.675781 31.351562 C 59.25 34.726562 59.625 35.925781 59.851562 48.449219 L 60.074219 60 L 51.148438 60 L 50.851562 50.175781 C 50.625 39.074219 50.175781 38.25 44.925781 38.25 C 42.75 38.25 41.773438 38.699219 40.574219 40.199219 C 39.148438 42 39 43.199219 39 51.074219 L 39 60 L 30 60 L 30 30 L 34.125 30 C 38.023438 30 38.25 30.074219 38.25 31.875 C 38.25 34.125 39.074219 34.273438 40.875 32.25 C 43.726562 29.101562 51 28.648438 54.675781 31.351562 Z M 24.75 45 L 24.75 60 L 15.75 60 L 15.75 30 L 24.75 30 Z M 24.75 45 " fill-opacity="1" fill-rule="nonzero"/></g></svg>