<svg xmlns="http://www.w3.org/2000/svg" xmlns:xlink="http://www.w3.org/1999/xlink" width="100" zoomAndPan="magnify" viewBox="0 0 75 74.999997" height="100" preserveAspectRatio="xMidYMid meet" version="1.0"><defs><clipPath id="50ed83e514"><path d="M 37.5 0 C 16.789062 0 0 16.789062 0 37.5 C 0 58.210938 16.789062 75 37.5 75 C 58.210938 75 75 58.210938 75 37.5 C 75 16.789062 58.210938 0 37.5 0 Z M 37.5 0 " clip-rule="nonzero"/></clipPath><clipPath id="f300f96689"><path d="M 14.863281 14.863281 L 60.179688 14.863281 L 60.179688 60.179688 L 14.863281 60.179688 Z M 14.863281 14.863281 " clip-rule="nonzero"/></clipPath><clipPath id="316dfaf272"><path d="M 26.601562 25 L 48.273438 25 L 48.273438 49.828125 L 26.601562 49.828125 Z M 26.601562 25 " clip-rule="nonzero"/></clipPath><clipPath id="67d36089e3"><path d="M 21 49 L 33 49 L 33 62 L 21 62 Z M 21 49 " clip-rule="nonzero"/></clipPath><clipPath id="d75262c8e1"><path d="M 32.078125 56.535156 L 25.601562 64.800781 L 16.746094 57.863281 L 23.226562 49.597656 Z M 32.078125 56.535156 " clip-rule="nonzero"/></clipPath><clipPath id="bd652452df"><path d="M 32.078125 56.535156 L 25.601562 64.800781 L 16.746094 57.863281 L 23.226562 49.597656 Z M 32.078125 56.535156 " clip-rule="nonzero"/></clipPath></defs><g clip-path="url(#50ed83e514)"><rect x="-7.5" width="90" fill="#545454" y="-7.5" height="89.999996" fill-opacity="1"/></g><g clip-path="url(#f300f96689)"><path fill="#ffffff" d="M 37.5 14.863281 C 24.992188 14.863281 14.863281 24.992188 14.863281 37.5 C 14.863281 50.007812 24.992188 60.136719 37.5 60.136719 C 50.007812 60.136719 60.136719 50.007812 60.136719 37.5 C 60.136719 24.992188 50.007812 14.863281 37.5 14.863281 Z M 37.5 55.609375 C 27.496094 55.609375 19.390625 47.503906 19.390625 37.5 C 19.390625 27.496094 27.496094 19.390625 37.5 19.390625 C 47.503906 19.390625 55.609375 27.496094 55.609375 37.5 C 55.609375 47.503906 47.503906 55.609375 37.5 55.609375 Z M 37.5 55.609375 " fill-opacity="1" fill-rule="nonzero"/></g><g clip-path="url(#316dfaf272)"><path fill="#ffffff" d="M 40.777344 41.144531 C 41.609375 40.550781 42.710938 40.855469 43.453125 41.554688 L 47.195312 45.058594 C 47.984375 45.800781 48.386719 46.949219 47.796875 47.859375 C 46.917969 49.21875 45.386719 50.121094 43.644531 50.121094 C 43.5625 50.121094 43.484375 50.117188 43.402344 50.113281 C 43.402344 50.117188 43.402344 50.117188 43.402344 50.117188 L 43.359375 50.113281 C 43.292969 50.109375 43.230469 50.101562 43.164062 50.097656 C 40.699219 49.894531 38.300781 49.183594 36.125 48.007812 C 33.878906 46.792969 31.917969 45.113281 30.375 43.074219 C 28.832031 41.039062 27.742188 38.695312 27.179688 36.207031 C 26.65625 33.875 26.601562 31.464844 27.023438 29.117188 C 27.257812 27.449219 28.320312 26.050781 29.785156 25.347656 C 30.769531 24.875 31.867188 25.433594 32.5 26.328125 L 35.394531 30.433594 C 36.027344 31.328125 36.183594 32.546875 35.40625 33.320312 C 34.511719 34.207031 33.28125 34.753906 31.921875 34.753906 C 31.820312 34.753906 31.714844 34.753906 31.613281 34.746094 C 31.566406 34.742188 31.53125 34.785156 31.539062 34.828125 C 31.539062 34.835938 31.542969 34.839844 31.542969 34.847656 C 31.566406 34.964844 31.589844 35.085938 31.617188 35.207031 C 32.035156 37.0625 32.847656 38.8125 34 40.328125 C 35.148438 41.847656 36.613281 43.101562 38.289062 44.003906 C 38.535156 44.140625 38.832031 43.988281 38.914062 43.71875 C 39.238281 42.667969 39.902344 41.769531 40.777344 41.144531 Z M 40.777344 41.144531 " fill-opacity="1" fill-rule="nonzero"/></g><g clip-path="url(#67d36089e3)"><g clip-path="url(#d75262c8e1)"><g clip-path="url(#bd652452df)"><path fill="#ffffff" d="M 32.078125 56.539062 L 26.402344 54.832031 L 23.011719 49.433594 L 21.488281 61.277344 L 32.078125 56.539062 " fill-opacity="1" fill-rule="nonzero"/></g></g></g></svg>