<svg xmlns="http://www.w3.org/2000/svg" xmlns:xlink="http://www.w3.org/1999/xlink" width="172" zoomAndPan="magnify" viewBox="0 0 129 37.5" height="50" preserveAspectRatio="xMidYMid meet" version="1.0"><defs><g/><clipPath id="a1d88f6d3a"><path d="M 0.847656 0 L 128.148438 0 L 128.148438 37.007812 L 0.847656 37.007812 Z M 0.847656 0 " clip-rule="nonzero"/></clipPath><clipPath id="ea584f3b73"><path d="M 4.550781 0 L 124.449219 0 L 124.449219 36.871094 L 4.550781 36.871094 Z M 4.550781 0 " clip-rule="nonzero"/></clipPath><clipPath id="8c7cbd537f"><path d="M 26.761719 5.132812 L 50.128906 5.132812 L 50.128906 32 L 26.761719 32 Z M 26.761719 5.132812 " clip-rule="nonzero"/></clipPath></defs><g clip-path="url(#a1d88f6d3a)"><path fill="#ffffff" d="M 0.847656 0 L 128.152344 0 L 128.152344 37.007812 L 0.847656 37.007812 Z M 0.847656 0 " fill-opacity="1" fill-rule="nonzero"/><path fill="#1572b6" d="M 0.847656 0 L 128.152344 0 L 128.152344 37.007812 L 0.847656 37.007812 Z M 0.847656 0 " fill-opacity="1" fill-rule="nonzero"/></g><g clip-path="url(#ea584f3b73)"><path fill="#1572b6" d="M 4.550781 -0.0351562 L 124.5 -0.0351562 L 124.5 36.871094 L 4.550781 36.871094 Z M 4.550781 -0.0351562 " fill-opacity="1" fill-rule="nonzero"/></g><g clip-path="url(#8c7cbd537f)"><path fill="#ffffff" d="M 50.53125 5.136719 L 48.433594 28.902344 L 38.648438 31.699219 L 28.859375 28.902344 L 26.761719 5.136719 Z M 32.914062 20.515625 L 35.710938 20.515625 L 35.78125 22.261719 L 38.648438 23.242188 L 41.515625 22.261719 L 41.722656 19.117188 L 35.574219 19.117188 L 35.429688 16.320312 L 41.863281 16.320312 L 42.070312 13.523438 L 32.425781 13.523438 L 32.21875 10.726562 L 45.011719 10.726562 L 44.660156 16.320312 L 44.167969 24.359375 L 38.648438 26.179688 L 33.125 24.359375 Z M 32.914062 20.515625 " fill-opacity="1" fill-rule="evenodd"/></g><g fill="#ffffff" fill-opacity="1"><g transform="translate(57.181731, 24.087871)"><g><path d="M 10.859375 -1.953125 C 10.359375 -1.191406 9.738281 -0.632812 9 -0.28125 C 8.269531 0.0703125 7.367188 0.25 6.296875 0.25 C 2.640625 0.25 0.8125 -1.796875 0.8125 -5.890625 C 0.8125 -7.984375 1.273438 -9.53125 2.203125 -10.53125 C 3.128906 -11.53125 4.460938 -12.03125 6.203125 -12.03125 C 7.359375 -12.03125 8.296875 -11.832031 9.015625 -11.4375 C 9.742188 -11.050781 10.300781 -10.546875 10.6875 -9.921875 L 8.828125 -8.46875 C 8.546875 -8.875 8.289062 -9.164062 8.0625 -9.34375 C 7.84375 -9.53125 7.585938 -9.671875 7.296875 -9.765625 C 7.003906 -9.859375 6.660156 -9.90625 6.265625 -9.90625 C 5.296875 -9.90625 4.554688 -9.59375 4.046875 -8.96875 C 3.546875 -8.351562 3.296875 -7.328125 3.296875 -5.890625 C 3.296875 -4.546875 3.53125 -3.539062 4 -2.875 C 4.476562 -2.207031 5.238281 -1.875 6.28125 -1.875 C 6.976562 -1.875 7.519531 -2.007812 7.90625 -2.28125 C 8.289062 -2.550781 8.644531 -2.90625 8.96875 -3.34375 Z M 10.859375 -1.953125 "/></g></g></g><g fill="#ffffff" fill-opacity="1"><g transform="translate(69.408499, 24.087871)"><g><path d="M 9.75 -3.421875 C 9.75 -2.234375 9.359375 -1.320312 8.578125 -0.6875 C 7.804688 -0.0625 6.664062 0.25 5.15625 0.25 C 4.113281 0.25 3.207031 0.078125 2.4375 -0.265625 C 1.664062 -0.617188 1.039062 -1.179688 0.5625 -1.953125 L 2.40625 -3.359375 C 2.675781 -2.972656 2.929688 -2.679688 3.171875 -2.484375 C 3.421875 -2.296875 3.710938 -2.144531 4.046875 -2.03125 C 4.390625 -1.925781 4.773438 -1.875 5.203125 -1.875 C 5.859375 -1.875 6.367188 -1.984375 6.734375 -2.203125 C 7.097656 -2.429688 7.28125 -2.78125 7.28125 -3.25 C 7.28125 -3.507812 7.21875 -3.722656 7.09375 -3.890625 C 6.96875 -4.066406 6.773438 -4.21875 6.515625 -4.34375 C 6.265625 -4.476562 5.820312 -4.628906 5.1875 -4.796875 C 4.582031 -4.960938 4.003906 -5.128906 3.453125 -5.296875 C 2.910156 -5.460938 2.441406 -5.675781 2.046875 -5.9375 C 1.660156 -6.207031 1.351562 -6.539062 1.125 -6.9375 C 0.894531 -7.34375 0.78125 -7.851562 0.78125 -8.46875 C 0.78125 -9.59375 1.15625 -10.46875 1.90625 -11.09375 C 2.664062 -11.71875 3.75 -12.03125 5.15625 -12.03125 C 7.195312 -12.03125 8.640625 -11.332031 9.484375 -9.9375 L 7.65625 -8.5 C 7.332031 -9 6.96875 -9.359375 6.5625 -9.578125 C 6.15625 -9.796875 5.675781 -9.90625 5.125 -9.90625 C 4.570312 -9.90625 4.117188 -9.800781 3.765625 -9.59375 C 3.421875 -9.394531 3.25 -9.082031 3.25 -8.65625 C 3.25 -8.269531 3.425781 -7.972656 3.78125 -7.765625 C 4.144531 -7.566406 4.78125 -7.367188 5.6875 -7.171875 C 6.1875 -7.035156 6.679688 -6.890625 7.171875 -6.734375 C 7.660156 -6.585938 8.09375 -6.378906 8.46875 -6.109375 C 8.851562 -5.847656 9.160156 -5.5 9.390625 -5.0625 C 9.628906 -4.632812 9.75 -4.085938 9.75 -3.421875 Z M 9.75 -3.421875 "/></g></g></g><g fill="#ffffff" fill-opacity="1"><g transform="translate(80.749394, 24.087871)"><g><path d="M 9.75 -3.421875 C 9.75 -2.234375 9.359375 -1.320312 8.578125 -0.6875 C 7.804688 -0.0625 6.664062 0.25 5.15625 0.25 C 4.113281 0.25 3.207031 0.078125 2.4375 -0.265625 C 1.664062 -0.617188 1.039062 -1.179688 0.5625 -1.953125 L 2.40625 -3.359375 C 2.675781 -2.972656 2.929688 -2.679688 3.171875 -2.484375 C 3.421875 -2.296875 3.710938 -2.144531 4.046875 -2.03125 C 4.390625 -1.925781 4.773438 -1.875 5.203125 -1.875 C 5.859375 -1.875 6.367188 -1.984375 6.734375 -2.203125 C 7.097656 -2.429688 7.28125 -2.78125 7.28125 -3.25 C 7.28125 -3.507812 7.21875 -3.722656 7.09375 -3.890625 C 6.96875 -4.066406 6.773438 -4.21875 6.515625 -4.34375 C 6.265625 -4.476562 5.820312 -4.628906 5.1875 -4.796875 C 4.582031 -4.960938 4.003906 -5.128906 3.453125 -5.296875 C 2.910156 -5.460938 2.441406 -5.675781 2.046875 -5.9375 C 1.660156 -6.207031 1.351562 -6.539062 1.125 -6.9375 C 0.894531 -7.34375 0.78125 -7.851562 0.78125 -8.46875 C 0.78125 -9.59375 1.15625 -10.46875 1.90625 -11.09375 C 2.664062 -11.71875 3.75 -12.03125 5.15625 -12.03125 C 7.195312 -12.03125 8.640625 -11.332031 9.484375 -9.9375 L 7.65625 -8.5 C 7.332031 -9 6.96875 -9.359375 6.5625 -9.578125 C 6.15625 -9.796875 5.675781 -9.90625 5.125 -9.90625 C 4.570312 -9.90625 4.117188 -9.800781 3.765625 -9.59375 C 3.421875 -9.394531 3.25 -9.082031 3.25 -8.65625 C 3.25 -8.269531 3.425781 -7.972656 3.78125 -7.765625 C 4.144531 -7.566406 4.78125 -7.367188 5.6875 -7.171875 C 6.1875 -7.035156 6.679688 -6.890625 7.171875 -6.734375 C 7.660156 -6.585938 8.09375 -6.378906 8.46875 -6.109375 C 8.851562 -5.847656 9.160156 -5.5 9.390625 -5.0625 C 9.628906 -4.632812 9.75 -4.085938 9.75 -3.421875 Z M 9.75 -3.421875 "/></g></g></g><g fill="#ffffff" fill-opacity="1"><g transform="translate(92.090288, 24.087871)"><g><path d="M 8.984375 -3.3125 C 8.984375 -2.101562 8.585938 -1.207031 7.796875 -0.625 C 7.003906 -0.0390625 5.914062 0.25 4.53125 0.25 C 3.539062 0.25 2.703125 0.0703125 2.015625 -0.28125 C 1.335938 -0.644531 0.851562 -1.101562 0.5625 -1.65625 L 2.5 -2.984375 C 2.707031 -2.660156 2.96875 -2.398438 3.28125 -2.203125 C 3.59375 -2.003906 4.019531 -1.90625 4.5625 -1.90625 C 5.238281 -1.90625 5.726562 -2.035156 6.03125 -2.296875 C 6.34375 -2.554688 6.5 -2.953125 6.5 -3.484375 C 6.5 -4.578125 5.78125 -5.125 4.34375 -5.125 L 3.296875 -5.125 L 3.296875 -7.1875 L 4.203125 -7.1875 C 4.921875 -7.1875 5.445312 -7.328125 5.78125 -7.609375 C 6.113281 -7.890625 6.28125 -8.257812 6.28125 -8.71875 C 6.28125 -9.050781 6.160156 -9.328125 5.921875 -9.546875 C 5.679688 -9.773438 5.289062 -9.890625 4.75 -9.890625 C 4.195312 -9.890625 3.757812 -9.800781 3.4375 -9.625 C 3.113281 -9.445312 2.832031 -9.1875 2.59375 -8.84375 L 0.6875 -10.1875 C 1.144531 -10.8125 1.703125 -11.273438 2.359375 -11.578125 C 3.023438 -11.878906 3.878906 -12.03125 4.921875 -12.03125 C 5.710938 -12.03125 6.398438 -11.90625 6.984375 -11.65625 C 7.578125 -11.414062 8.019531 -11.078125 8.3125 -10.640625 C 8.613281 -10.203125 8.765625 -9.703125 8.765625 -9.140625 C 8.765625 -7.597656 7.972656 -6.628906 6.390625 -6.234375 C 7.160156 -6.191406 7.785156 -5.898438 8.265625 -5.359375 C 8.742188 -4.828125 8.984375 -4.144531 8.984375 -3.3125 Z M 8.984375 -3.3125 "/></g></g></g></svg>