<svg xmlns="http://www.w3.org/2000/svg" xmlns:xlink="http://www.w3.org/1999/xlink" width="172" zoomAndPan="magnify" viewBox="0 0 129 37.5" height="50" preserveAspectRatio="xMidYMid meet" version="1.0"><defs><g/><clipPath id="a6ffd4231b"><path d="M 0.847656 0 L 128.148438 0 L 128.148438 37.007812 L 0.847656 37.007812 Z M 0.847656 0 " clip-rule="nonzero"/></clipPath><clipPath id="44f6717404"><path d="M 7.292969 0 L 126.617188 0 L 126.617188 36.730469 L 7.292969 36.730469 Z M 7.292969 0 " clip-rule="nonzero"/></clipPath><clipPath id="464c830565"><path d="M 26.101562 4.324219 L 53.9375 4.324219 L 53.9375 32.160156 L 26.101562 32.160156 Z M 26.101562 4.324219 " clip-rule="nonzero"/></clipPath></defs><g clip-path="url(#a6ffd4231b)"><path fill="#ffffff" d="M 0.847656 0 L 128.152344 0 L 128.152344 37.007812 L 0.847656 37.007812 Z M 0.847656 0 " fill-opacity="1" fill-rule="nonzero"/><path fill="#e34f26" d="M 0.847656 0 L 128.152344 0 L 128.152344 37.007812 L 0.847656 37.007812 Z M 0.847656 0 " fill-opacity="1" fill-rule="nonzero"/></g><g clip-path="url(#44f6717404)"><path fill="#e44c30" d="M 7.292969 0 L 126.667969 0 L 126.667969 36.730469 L 7.292969 36.730469 Z M 7.292969 0 " fill-opacity="1" fill-rule="nonzero"/></g><g clip-path="url(#464c830565)"><path fill="#ffffff" d="M 53.410156 17.003906 L 41.257812 4.847656 C 40.554688 4.148438 39.421875 4.148438 38.71875 4.847656 L 36.199219 7.371094 L 39.402344 10.574219 C 40.148438 10.324219 41 10.492188 41.59375 11.085938 C 42.191406 11.683594 42.355469 12.542969 42.101562 13.289062 L 45.183594 16.375 C 45.929688 16.113281 46.792969 16.285156 47.386719 16.878906 C 48.222656 17.714844 48.222656 19.0625 47.386719 19.898438 C 46.554688 20.730469 45.207031 20.730469 44.371094 19.898438 C 43.746094 19.269531 43.589844 18.347656 43.902344 17.582031 L 41.015625 14.710938 L 41.015625 22.28125 C 41.21875 22.378906 41.414062 22.515625 41.582031 22.683594 C 42.410156 23.519531 42.410156 24.867188 41.582031 25.699219 C 40.746094 26.535156 39.390625 26.535156 38.554688 25.699219 C 37.722656 24.863281 37.722656 23.519531 38.554688 22.6875 C 38.765625 22.476562 39.003906 22.320312 39.257812 22.214844 L 39.257812 14.574219 C 39.007812 14.46875 38.765625 14.316406 38.5625 14.105469 C 37.929688 13.476562 37.777344 12.550781 38.101562 11.777344 L 34.957031 8.617188 L 26.621094 16.945312 C 25.925781 17.648438 25.925781 18.78125 26.621094 19.484375 L 38.777344 31.636719 C 39.476562 32.335938 40.613281 32.335938 41.3125 31.636719 L 53.410156 19.539062 C 54.113281 18.839844 54.113281 17.703125 53.410156 17.003906 " fill-opacity="1" fill-rule="nonzero"/></g><g fill="#ffffff" fill-opacity="1"><g transform="translate(61.813066, 27.322946)"><g><path d="M 17.375 -9.96875 L 17.375 -6.109375 C 16.914062 -3.992188 15.910156 -2.390625 14.359375 -1.296875 C 12.804688 -0.210938 11.078125 0.328125 9.171875 0.328125 C 6.765625 0.328125 4.71875 -0.566406 3.03125 -2.359375 C 1.34375 -4.160156 0.5 -6.335938 0.5 -8.890625 C 0.5 -11.472656 1.320312 -13.65625 2.96875 -15.4375 C 4.625 -17.21875 6.691406 -18.109375 9.171875 -18.109375 C 12.054688 -18.109375 14.335938 -17.097656 16.015625 -15.078125 L 13.375 -12.15625 C 12.425781 -13.6875 11.101562 -14.453125 9.40625 -14.453125 C 8.15625 -14.453125 7.085938 -13.90625 6.203125 -12.8125 C 5.316406 -11.726562 4.875 -10.421875 4.875 -8.890625 C 4.875 -7.378906 5.316406 -6.085938 6.203125 -5.015625 C 7.085938 -3.941406 8.15625 -3.40625 9.40625 -3.40625 C 10.4375 -3.40625 11.335938 -3.71875 12.109375 -4.34375 C 12.878906 -4.96875 13.265625 -5.796875 13.265625 -6.828125 L 9.171875 -6.828125 L 9.171875 -9.96875 Z M 17.375 -9.96875 "/></g></g></g><g fill="#ffffff" fill-opacity="1"><g transform="translate(79.683874, 27.322946)"><g><path d="M 5.34375 -17.796875 L 5.34375 0 L 1.296875 0 L 1.296875 -17.796875 Z M 5.34375 -17.796875 "/></g></g></g><g fill="#ffffff" fill-opacity="1"><g transform="translate(86.323437, 27.322946)"><g><path d="M 0.171875 -14.234375 L 0.171875 -17.796875 L 12.671875 -17.796875 L 12.671875 -14.234375 L 8.453125 -14.234375 L 8.453125 0 L 4.40625 0 L 4.40625 -14.234375 Z M 0.171875 -14.234375 "/></g></g></g></svg>