<svg xmlns="http://www.w3.org/2000/svg" xmlns:xlink="http://www.w3.org/1999/xlink" width="172" zoomAndPan="magnify" viewBox="0 0 129 37.5" height="50" preserveAspectRatio="xMidYMid meet" version="1.0"><defs><g/><clipPath id="4603e59c17"><path d="M 0.847656 0 L 128.148438 0 L 128.148438 37.007812 L 0.847656 37.007812 Z M 0.847656 0 " clip-rule="nonzero"/></clipPath><clipPath id="249062081e"><path d="M 4.230469 0 L 124.449219 0 L 124.449219 37.007812 L 4.230469 37.007812 Z M 4.230469 0 " clip-rule="nonzero"/></clipPath><clipPath id="4d68e58dc6"><path d="M 18.398438 5.089844 L 42.082031 5.089844 L 42.082031 31.734375 L 18.398438 31.734375 Z M 18.398438 5.089844 " clip-rule="nonzero"/></clipPath></defs><g clip-path="url(#4603e59c17)"><path fill="#ffffff" d="M 0.847656 0 L 128.152344 0 L 128.152344 37.007812 L 0.847656 37.007812 Z M 0.847656 0 " fill-opacity="1" fill-rule="nonzero"/><path fill="#e34f26" d="M 0.847656 0 L 128.152344 0 L 128.152344 37.007812 L 0.847656 37.007812 Z M 0.847656 0 " fill-opacity="1" fill-rule="nonzero"/></g><g clip-path="url(#249062081e)"><path fill="#e34f26" d="M 4.230469 0 L 124.5 0 L 124.5 37.007812 L 4.230469 37.007812 Z M 4.230469 0 " fill-opacity="1" fill-rule="nonzero"/></g><g clip-path="url(#4d68e58dc6)"><path fill="#ffffff" d="M 42.167969 5.308594 C 42.058594 5.191406 41.902344 5.121094 41.738281 5.121094 L 19.015625 5.121094 C 18.851562 5.121094 18.695312 5.191406 18.585938 5.308594 C 18.476562 5.429688 18.421875 5.59375 18.4375 5.753906 L 20.484375 28.683594 C 20.503906 28.925781 20.671875 29.125 20.902344 29.191406 L 30.214844 31.851562 C 30.265625 31.867188 30.320312 31.875 30.375 31.875 C 30.429688 31.875 30.484375 31.867188 30.535156 31.851562 L 39.855469 29.191406 C 40.085938 29.125 40.253906 28.925781 40.273438 28.683594 L 42.320312 5.753906 C 42.335938 5.589844 42.28125 5.429688 42.167969 5.308594 Z M 37.269531 13.214844 L 26.328125 13.214844 L 26.585938 16.175781 L 37.003906 16.175781 L 36.222656 24.925781 L 30.375 26.691406 L 30.316406 26.675781 L 24.535156 24.921875 L 24.21875 21.359375 L 27.050781 21.359375 L 27.175781 22.742188 L 30.40625 23.417969 L 33.582031 22.742188 L 33.917969 19 L 24.007812 19 L 23.238281 10.386719 L 37.523438 10.386719 Z M 37.269531 13.214844 " fill-opacity="1" fill-rule="nonzero"/></g><g fill="#ffffff" fill-opacity="1"><g transform="translate(50.033523, 24.187972)"><g><path d="M 8.34375 0 L 8.34375 -5.015625 L 3.6875 -5.015625 L 3.6875 0 L 1.28125 0 L 1.28125 -11.8125 L 3.6875 -11.8125 L 3.6875 -7.21875 L 8.34375 -7.21875 L 8.34375 -11.8125 L 10.75 -11.8125 L 10.75 0 Z M 8.34375 0 "/></g></g></g><g fill="#ffffff" fill-opacity="1"><g transform="translate(62.941921, 24.187972)"><g><path d="M 6.34375 -9.609375 L 6.34375 0 L 3.9375 0 L 3.9375 -9.609375 L 0.296875 -9.609375 L 0.296875 -11.8125 L 9.984375 -11.8125 L 9.984375 -9.609375 Z M 6.34375 -9.609375 "/></g></g></g><g fill="#ffffff" fill-opacity="1"><g transform="translate(74.099477, 24.187972)"><g><path d="M 10.625 0 L 10.625 -7.9375 L 7.796875 -3 L 6.40625 -3 L 3.609375 -7.9375 L 3.609375 0 L 1.28125 0 L 1.28125 -11.8125 L 4.0625 -11.8125 L 7.140625 -6.203125 L 10.25 -11.8125 L 12.953125 -11.8125 L 12.953125 0 Z M 10.625 0 "/></g></g></g><g fill="#ffffff" fill-opacity="1"><g transform="translate(89.211373, 24.187972)"><g><path d="M 1.28125 0 L 1.28125 -11.8125 L 3.6875 -11.8125 L 3.6875 -2.203125 L 8.65625 -2.203125 L 8.65625 0 Z M 1.28125 0 "/></g></g></g><g fill="#ffffff" fill-opacity="1"><g transform="translate(98.951175, 24.187972)"><g><path d="M 9.390625 -3.890625 C 9.390625 -2.597656 8.976562 -1.582031 8.15625 -0.84375 C 7.332031 -0.113281 6.148438 0.25 4.609375 0.25 C 2.671875 0.25 1.273438 -0.398438 0.421875 -1.703125 L 2.34375 -3.0625 C 2.78125 -2.289062 3.519531 -1.90625 4.5625 -1.90625 C 6.132812 -1.90625 6.921875 -2.582031 6.921875 -3.9375 C 6.921875 -4.507812 6.710938 -4.957031 6.296875 -5.28125 C 5.890625 -5.601562 5.316406 -5.765625 4.578125 -5.765625 C 3.796875 -5.765625 3.203125 -5.554688 2.796875 -5.140625 L 1.125 -5.140625 L 1.8125 -11.8125 L 8.71875 -11.8125 L 8.71875 -9.609375 L 3.734375 -9.609375 L 3.5 -7.53125 C 4.039062 -7.757812 4.640625 -7.875 5.296875 -7.875 C 6.566406 -7.875 7.566406 -7.535156 8.296875 -6.859375 C 9.023438 -6.179688 9.390625 -5.191406 9.390625 -3.890625 Z M 9.390625 -3.890625 "/></g></g></g></svg>