<svg xmlns="http://www.w3.org/2000/svg" xmlns:xlink="http://www.w3.org/1999/xlink" width="172" zoomAndPan="magnify" viewBox="0 0 129 37.5" height="50" preserveAspectRatio="xMidYMid meet" version="1.0"><defs><g/><clipPath id="5bfe15826c"><path d="M 0.847656 0 L 128.148438 0 L 128.148438 37.007812 L 0.847656 37.007812 Z M 0.847656 0 " clip-rule="nonzero"/></clipPath><clipPath id="a404d5d5ec"><path d="M 4.691406 0.140625 L 124.449219 0.140625 L 124.449219 37.007812 L 4.691406 37.007812 Z M 4.691406 0.140625 " clip-rule="nonzero"/></clipPath></defs><g clip-path="url(#5bfe15826c)"><path fill="#ffffff" d="M 0.847656 0 L 128.152344 0 L 128.152344 37.007812 L 0.847656 37.007812 Z M 0.847656 0 " fill-opacity="1" fill-rule="nonzero"/><path fill="#ff9a00" d="M 0.847656 0 L 128.152344 0 L 128.152344 37.007812 L 0.847656 37.007812 Z M 0.847656 0 " fill-opacity="1" fill-rule="nonzero"/></g><g clip-path="url(#a404d5d5ec)"><path fill="#ff9a00" d="M 4.691406 0.140625 L 124.5 0.140625 L 124.5 37.007812 L 4.691406 37.007812 Z M 4.691406 0.140625 " fill-opacity="1" fill-rule="nonzero"/></g><g fill="#ffffff" fill-opacity="1"><g transform="translate(9.498944, 20.234292)"><g><path d="M 4.78125 -8.21875 L 8.09375 0 L 6.078125 0 L 5.46875 -1.640625 L 2.34375 -1.640625 L 1.734375 0 L -0.28125 0 L 3.046875 -8.21875 Z M 4.828125 -3.296875 L 3.921875 -5.6875 L 3.890625 -5.6875 L 2.984375 -3.296875 Z M 4.828125 -3.296875 "/></g></g></g><g fill="#ffffff" fill-opacity="1"><g transform="translate(17.308525, 20.234292)"><g><path d="M 0.59375 -8.21875 L 2.984375 -8.21875 C 4.117188 -8.21875 5.09375 -7.828125 5.90625 -7.046875 C 6.71875 -6.265625 7.125 -5.285156 7.125 -4.109375 C 7.125 -2.929688 6.71875 -1.953125 5.90625 -1.171875 C 5.101562 -0.390625 4.128906 0 2.984375 0 L 0.59375 0 Z M 2.46875 -1.671875 L 2.765625 -1.671875 C 3.441406 -1.671875 4 -1.898438 4.4375 -2.359375 C 4.875 -2.828125 5.097656 -3.410156 5.109375 -4.109375 C 5.109375 -4.804688 4.890625 -5.382812 4.453125 -5.84375 C 4.015625 -6.3125 3.453125 -6.546875 2.765625 -6.546875 L 2.46875 -6.546875 Z M 2.46875 -1.671875 "/></g></g></g><g fill="#ffffff" fill-opacity="1"><g transform="translate(24.659892, 20.234292)"><g><path d="M 0.234375 -4.109375 C 0.234375 -5.304688 0.632812 -6.316406 1.4375 -7.140625 C 2.25 -7.960938 3.226562 -8.375 4.375 -8.375 C 5.519531 -8.375 6.492188 -7.960938 7.296875 -7.140625 C 8.109375 -6.316406 8.515625 -5.304688 8.515625 -4.109375 C 8.515625 -2.910156 8.117188 -1.898438 7.328125 -1.078125 C 6.535156 -0.253906 5.550781 0.15625 4.375 0.15625 C 3.175781 0.15625 2.1875 -0.25 1.40625 -1.0625 C 0.625 -1.882812 0.234375 -2.898438 0.234375 -4.109375 Z M 2.25 -4.109375 C 2.25 -3.679688 2.316406 -3.289062 2.453125 -2.9375 C 2.585938 -2.582031 2.820312 -2.28125 3.15625 -2.03125 C 3.488281 -1.789062 3.894531 -1.671875 4.375 -1.671875 C 5.070312 -1.671875 5.597656 -1.90625 5.953125 -2.375 C 6.304688 -2.851562 6.484375 -3.429688 6.484375 -4.109375 C 6.484375 -4.785156 6.300781 -5.363281 5.9375 -5.84375 C 5.582031 -6.320312 5.0625 -6.5625 4.375 -6.5625 C 3.695312 -6.5625 3.171875 -6.320312 2.796875 -5.84375 C 2.429688 -5.363281 2.25 -4.785156 2.25 -4.109375 Z M 2.25 -4.109375 "/></g></g></g><g fill="#ffffff" fill-opacity="1"><g transform="translate(33.395869, 20.234292)"><g><path d="M 0.59375 -8.21875 L 3.15625 -8.21875 C 3.925781 -8.21875 4.539062 -8.050781 5 -7.71875 C 5.457031 -7.394531 5.6875 -6.863281 5.6875 -6.125 C 5.6875 -5.300781 5.34375 -4.710938 4.65625 -4.359375 C 5.820312 -4.160156 6.40625 -3.472656 6.40625 -2.296875 C 6.40625 -1.597656 6.164062 -1.039062 5.6875 -0.625 C 5.207031 -0.207031 4.550781 0 3.71875 0 L 0.59375 0 Z M 2.46875 -5 L 2.625 -5 C 3.039062 -5 3.351562 -5.070312 3.5625 -5.21875 C 3.769531 -5.363281 3.875 -5.601562 3.875 -5.9375 C 3.875 -6.5 3.457031 -6.78125 2.625 -6.78125 L 2.46875 -6.78125 Z M 2.46875 -1.453125 L 3.0625 -1.453125 C 3.976562 -1.453125 4.4375 -1.753906 4.4375 -2.359375 C 4.4375 -2.722656 4.320312 -2.984375 4.09375 -3.140625 C 3.863281 -3.304688 3.519531 -3.390625 3.0625 -3.390625 L 2.46875 -3.390625 Z M 2.46875 -1.453125 "/></g></g></g><g fill="#ffffff" fill-opacity="1"><g transform="translate(40.030024, 20.234292)"><g><path d="M 5.296875 -8.21875 L 5.296875 -6.578125 L 2.46875 -6.578125 L 2.46875 -4.9375 L 5.1875 -4.9375 L 5.1875 -3.296875 L 2.46875 -3.296875 L 2.46875 -1.640625 L 5.296875 -1.640625 L 5.296875 0 L 0.59375 0 L 0.59375 -8.21875 Z M 5.296875 -8.21875 "/></g></g></g><g fill="#ffffff" fill-opacity="1"><g transform="translate(45.807524, 20.234292)"><g/></g></g><g fill="#ffffff" fill-opacity="1"><g transform="translate(48.526926, 20.234292)"><g><path d="M 2.46875 -8.21875 L 2.46875 0 L 0.59375 0 L 0.59375 -8.21875 Z M 2.46875 -8.21875 "/></g></g></g><g fill="#ffffff" fill-opacity="1"><g transform="translate(51.594979, 20.234292)"><g><path d="M 2.46875 -8.21875 L 2.46875 -1.640625 L 5.296875 -1.640625 L 5.296875 0 L 0.59375 0 L 0.59375 -8.21875 Z M 2.46875 -8.21875 "/></g></g></g><g fill="#ffffff" fill-opacity="1"><g transform="translate(57.223055, 20.234292)"><g><path d="M 2.46875 -8.21875 L 2.46875 -1.640625 L 5.296875 -1.640625 L 5.296875 0 L 0.59375 0 L 0.59375 -8.21875 Z M 2.46875 -8.21875 "/></g></g></g><g fill="#ffffff" fill-opacity="1"><g transform="translate(62.851131, 20.234292)"><g><path d="M 6.921875 -8.21875 L 6.921875 -2.921875 C 6.921875 -1.910156 6.644531 -1.144531 6.09375 -0.625 C 5.550781 -0.101562 4.753906 0.15625 3.703125 0.15625 C 2.660156 0.15625 1.863281 -0.101562 1.3125 -0.625 C 0.769531 -1.144531 0.5 -1.910156 0.5 -2.921875 L 0.5 -8.21875 L 2.375 -8.21875 L 2.375 -3.46875 C 2.375 -2.800781 2.476562 -2.335938 2.6875 -2.078125 C 2.894531 -1.816406 3.234375 -1.6875 3.703125 -1.6875 C 4.179688 -1.6875 4.523438 -1.816406 4.734375 -2.078125 C 4.941406 -2.335938 5.046875 -2.800781 5.046875 -3.46875 L 5.046875 -8.21875 Z M 6.921875 -8.21875 "/></g></g></g><g fill="#ffffff" fill-opacity="1"><g transform="translate(70.26227, 20.234292)"><g><path d="M 3.625 -8.375 C 4.070312 -8.375 4.507812 -8.304688 4.9375 -8.171875 C 5.363281 -8.046875 5.675781 -7.921875 5.875 -7.796875 L 6.1875 -7.59375 L 5.421875 -6.09375 C 5.359375 -6.132812 5.273438 -6.1875 5.171875 -6.25 C 5.066406 -6.3125 4.867188 -6.394531 4.578125 -6.5 C 4.285156 -6.613281 4.015625 -6.671875 3.765625 -6.671875 C 3.453125 -6.671875 3.207031 -6.601562 3.03125 -6.46875 C 2.863281 -6.332031 2.78125 -6.15625 2.78125 -5.9375 C 2.78125 -5.820312 2.816406 -5.710938 2.890625 -5.609375 C 2.972656 -5.515625 3.109375 -5.410156 3.296875 -5.296875 C 3.492188 -5.191406 3.664062 -5.101562 3.8125 -5.03125 C 3.957031 -4.96875 4.1875 -4.875 4.5 -4.75 C 5.03125 -4.519531 5.484375 -4.207031 5.859375 -3.8125 C 6.234375 -3.425781 6.421875 -2.988281 6.421875 -2.5 C 6.421875 -2.03125 6.332031 -1.617188 6.15625 -1.265625 C 5.988281 -0.910156 5.757812 -0.632812 5.46875 -0.4375 C 5.175781 -0.238281 4.847656 -0.09375 4.484375 0 C 4.128906 0.101562 3.738281 0.15625 3.3125 0.15625 C 2.957031 0.15625 2.609375 0.117188 2.265625 0.046875 C 1.921875 -0.0234375 1.628906 -0.117188 1.390625 -0.234375 C 1.160156 -0.347656 0.953125 -0.457031 0.765625 -0.5625 C 0.578125 -0.664062 0.441406 -0.753906 0.359375 -0.828125 L 0.234375 -0.9375 L 1.171875 -2.515625 C 1.242188 -2.441406 1.347656 -2.351562 1.484375 -2.25 C 1.628906 -2.15625 1.878906 -2.019531 2.234375 -1.84375 C 2.585938 -1.664062 2.90625 -1.578125 3.1875 -1.578125 C 3.96875 -1.578125 4.359375 -1.847656 4.359375 -2.390625 C 4.359375 -2.503906 4.332031 -2.609375 4.28125 -2.703125 C 4.226562 -2.796875 4.128906 -2.890625 3.984375 -2.984375 C 3.835938 -3.085938 3.707031 -3.164062 3.59375 -3.21875 C 3.488281 -3.28125 3.3125 -3.367188 3.0625 -3.484375 C 2.8125 -3.597656 2.628906 -3.6875 2.515625 -3.75 C 2.015625 -3.988281 1.628906 -4.289062 1.359375 -4.65625 C 1.085938 -5.03125 0.953125 -5.429688 0.953125 -5.859375 C 0.953125 -6.597656 1.222656 -7.203125 1.765625 -7.671875 C 2.304688 -8.140625 2.925781 -8.375 3.625 -8.375 Z M 3.625 -8.375 "/></g></g></g><g fill="#ffffff" fill-opacity="1"><g transform="translate(76.956197, 20.234292)"><g><path d="M 0.078125 -6.578125 L 0.078125 -8.21875 L 5.859375 -8.21875 L 5.859375 -6.578125 L 3.90625 -6.578125 L 3.90625 0 L 2.03125 0 L 2.03125 -6.578125 Z M 0.078125 -6.578125 "/></g></g></g><g fill="#ffffff" fill-opacity="1"><g transform="translate(82.893076, 20.234292)"><g><path d="M 0.59375 -8.21875 L 3.53125 -8.21875 C 4.320312 -8.21875 4.96875 -8.003906 5.46875 -7.578125 C 5.96875 -7.160156 6.21875 -6.5625 6.21875 -5.78125 C 6.21875 -5.175781 6.066406 -4.671875 5.765625 -4.265625 C 5.460938 -3.859375 5.050781 -3.570312 4.53125 -3.40625 L 7.359375 0 L 4.984375 0 L 2.46875 -3.25 L 2.46875 0 L 0.59375 0 Z M 2.46875 -4.578125 L 2.6875 -4.578125 C 2.863281 -4.578125 3.007812 -4.578125 3.125 -4.578125 C 3.25 -4.585938 3.382812 -4.613281 3.53125 -4.65625 C 3.6875 -4.695312 3.8125 -4.753906 3.90625 -4.828125 C 4 -4.898438 4.078125 -5.003906 4.140625 -5.140625 C 4.210938 -5.285156 4.25 -5.457031 4.25 -5.65625 C 4.25 -5.851562 4.210938 -6.019531 4.140625 -6.15625 C 4.078125 -6.300781 4 -6.410156 3.90625 -6.484375 C 3.8125 -6.554688 3.6875 -6.609375 3.53125 -6.640625 C 3.382812 -6.679688 3.25 -6.707031 3.125 -6.71875 C 3.007812 -6.726562 2.863281 -6.734375 2.6875 -6.734375 L 2.46875 -6.734375 Z M 2.46875 -4.578125 "/></g></g></g><g fill="#ffffff" fill-opacity="1"><g transform="translate(90.025292, 20.234292)"><g><path d="M 4.78125 -8.21875 L 8.09375 0 L 6.078125 0 L 5.46875 -1.640625 L 2.34375 -1.640625 L 1.734375 0 L -0.28125 0 L 3.046875 -8.21875 Z M 4.828125 -3.296875 L 3.921875 -5.6875 L 3.890625 -5.6875 L 2.984375 -3.296875 Z M 4.828125 -3.296875 "/></g></g></g><g fill="#ffffff" fill-opacity="1"><g transform="translate(97.834874, 20.234292)"><g><path d="M 0.078125 -6.578125 L 0.078125 -8.21875 L 5.859375 -8.21875 L 5.859375 -6.578125 L 3.90625 -6.578125 L 3.90625 0 L 2.03125 0 L 2.03125 -6.578125 Z M 0.078125 -6.578125 "/></g></g></g><g fill="#ffffff" fill-opacity="1"><g transform="translate(103.771752, 20.234292)"><g><path d="M 0.234375 -4.109375 C 0.234375 -5.304688 0.632812 -6.316406 1.4375 -7.140625 C 2.25 -7.960938 3.226562 -8.375 4.375 -8.375 C 5.519531 -8.375 6.492188 -7.960938 7.296875 -7.140625 C 8.109375 -6.316406 8.515625 -5.304688 8.515625 -4.109375 C 8.515625 -2.910156 8.117188 -1.898438 7.328125 -1.078125 C 6.535156 -0.253906 5.550781 0.15625 4.375 0.15625 C 3.175781 0.15625 2.1875 -0.25 1.40625 -1.0625 C 0.625 -1.882812 0.234375 -2.898438 0.234375 -4.109375 Z M 2.25 -4.109375 C 2.25 -3.679688 2.316406 -3.289062 2.453125 -2.9375 C 2.585938 -2.582031 2.820312 -2.28125 3.15625 -2.03125 C 3.488281 -1.789062 3.894531 -1.671875 4.375 -1.671875 C 5.070312 -1.671875 5.597656 -1.90625 5.953125 -2.375 C 6.304688 -2.851562 6.484375 -3.429688 6.484375 -4.109375 C 6.484375 -4.785156 6.300781 -5.363281 5.9375 -5.84375 C 5.582031 -6.320312 5.0625 -6.5625 4.375 -6.5625 C 3.695312 -6.5625 3.171875 -6.320312 2.796875 -5.84375 C 2.429688 -5.363281 2.25 -4.785156 2.25 -4.109375 Z M 2.25 -4.109375 "/></g></g></g><g fill="#ffffff" fill-opacity="1"><g transform="translate(112.507729, 20.234292)"><g><path d="M 0.59375 -8.21875 L 3.53125 -8.21875 C 4.320312 -8.21875 4.96875 -8.003906 5.46875 -7.578125 C 5.96875 -7.160156 6.21875 -6.5625 6.21875 -5.78125 C 6.21875 -5.175781 6.066406 -4.671875 5.765625 -4.265625 C 5.460938 -3.859375 5.050781 -3.570312 4.53125 -3.40625 L 7.359375 0 L 4.984375 0 L 2.46875 -3.25 L 2.46875 0 L 0.59375 0 Z M 2.46875 -4.578125 L 2.6875 -4.578125 C 2.863281 -4.578125 3.007812 -4.578125 3.125 -4.578125 C 3.25 -4.585938 3.382812 -4.613281 3.53125 -4.65625 C 3.6875 -4.695312 3.8125 -4.753906 3.90625 -4.828125 C 4 -4.898438 4.078125 -5.003906 4.140625 -5.140625 C 4.210938 -5.285156 4.25 -5.457031 4.25 -5.65625 C 4.25 -5.851562 4.210938 -6.019531 4.140625 -6.15625 C 4.078125 -6.300781 4 -6.410156 3.90625 -6.484375 C 3.8125 -6.554688 3.6875 -6.609375 3.53125 -6.640625 C 3.382812 -6.679688 3.25 -6.707031 3.125 -6.71875 C 3.007812 -6.726562 2.863281 -6.734375 2.6875 -6.734375 L 2.46875 -6.734375 Z M 2.46875 -4.578125 "/></g></g></g></svg>