<svg xmlns="http://www.w3.org/2000/svg" xmlns:xlink="http://www.w3.org/1999/xlink" width="172" zoomAndPan="magnify" viewBox="0 0 129 37.5" height="50" preserveAspectRatio="xMidYMid meet" version="1.0"><defs><g/><clipPath id="0ce62a266b"><path d="M 0.847656 0 L 128.148438 0 L 128.148438 37.007812 L 0.847656 37.007812 Z M 0.847656 0 " clip-rule="nonzero"/></clipPath><clipPath id="965a88ce5e"><path d="M 4.550781 0.0976562 L 124.449219 0.0976562 L 124.449219 37.007812 L 4.550781 37.007812 Z M 4.550781 0.0976562 " clip-rule="nonzero"/></clipPath><clipPath id="4b847e7723"><path d="M 14.199219 4.964844 L 40.492188 4.964844 L 40.492188 32.140625 L 14.199219 32.140625 Z M 14.199219 4.964844 " clip-rule="nonzero"/></clipPath></defs><g clip-path="url(#0ce62a266b)"><path fill="#ffffff" d="M 0.847656 0 L 128.152344 0 L 128.152344 37.007812 L 0.847656 37.007812 Z M 0.847656 0 " fill-opacity="1" fill-rule="nonzero"/><path fill="#efda4f" d="M 0.847656 0 L 128.152344 0 L 128.152344 37.007812 L 0.847656 37.007812 Z M 0.847656 0 " fill-opacity="1" fill-rule="nonzero"/></g><g clip-path="url(#965a88ce5e)"><path fill="#efda4f" d="M 4.550781 0.0976562 L 124.5 0.0976562 L 124.5 37.007812 L 4.550781 37.007812 Z M 4.550781 0.0976562 " fill-opacity="1" fill-rule="nonzero"/></g><g clip-path="url(#4b847e7723)"><path fill="#000000" d="M 14.199219 4.964844 L 40.492188 4.964844 L 40.492188 32.179688 L 14.199219 32.179688 Z M 14.199219 4.964844 " fill-opacity="1" fill-rule="nonzero"/></g><g fill="#efda4f" fill-opacity="1"><g transform="translate(22.740493, 30.587005)"><g><path d="M 6.71875 -13.234375 L 6.71875 -3.734375 C 6.71875 -2.441406 6.363281 -1.457031 5.65625 -0.78125 C 4.945312 -0.101562 3.925781 0.234375 2.59375 0.234375 C 2.238281 0.234375 1.890625 0.191406 1.546875 0.109375 C 1.210938 0.0234375 0.925781 -0.078125 0.6875 -0.203125 C 0.457031 -0.328125 0.25 -0.453125 0.0625 -0.578125 C -0.125 -0.703125 -0.265625 -0.8125 -0.359375 -0.90625 L -0.5 -1.03125 L 0.46875 -3.546875 C 1.09375 -2.941406 1.664062 -2.640625 2.1875 -2.640625 C 2.644531 -2.640625 3.007812 -2.789062 3.28125 -3.09375 C 3.5625 -3.40625 3.703125 -3.878906 3.703125 -4.515625 L 3.703125 -13.234375 Z M 6.71875 -13.234375 "/></g></g></g><g fill="#efda4f" fill-opacity="1"><g transform="translate(30.267495, 30.587005)"><g><path d="M 5.84375 -13.484375 C 6.5625 -13.484375 7.257812 -13.378906 7.9375 -13.171875 C 8.625 -12.960938 9.132812 -12.753906 9.46875 -12.546875 L 9.953125 -12.234375 L 8.734375 -9.828125 C 8.628906 -9.890625 8.492188 -9.96875 8.328125 -10.0625 C 8.160156 -10.164062 7.835938 -10.300781 7.359375 -10.46875 C 6.890625 -10.644531 6.453125 -10.734375 6.046875 -10.734375 C 5.546875 -10.734375 5.160156 -10.625 4.890625 -10.40625 C 4.617188 -10.195312 4.484375 -9.910156 4.484375 -9.546875 C 4.484375 -9.367188 4.546875 -9.203125 4.671875 -9.046875 C 4.796875 -8.890625 5.015625 -8.722656 5.328125 -8.546875 C 5.640625 -8.367188 5.910156 -8.222656 6.140625 -8.109375 C 6.378906 -8.003906 6.742188 -7.847656 7.234375 -7.640625 C 8.085938 -7.273438 8.816406 -6.78125 9.421875 -6.15625 C 10.023438 -5.53125 10.328125 -4.820312 10.328125 -4.03125 C 10.328125 -3.269531 10.191406 -2.601562 9.921875 -2.03125 C 9.648438 -1.46875 9.273438 -1.023438 8.796875 -0.703125 C 8.328125 -0.378906 7.800781 -0.144531 7.21875 0 C 6.644531 0.15625 6.019531 0.234375 5.34375 0.234375 C 4.769531 0.234375 4.203125 0.175781 3.640625 0.0625 C 3.085938 -0.0507812 2.625 -0.195312 2.25 -0.375 C 1.875 -0.550781 1.535156 -0.722656 1.234375 -0.890625 C 0.929688 -1.066406 0.710938 -1.210938 0.578125 -1.328125 L 0.375 -1.515625 L 1.875 -4.046875 C 2 -3.941406 2.175781 -3.804688 2.40625 -3.640625 C 2.632812 -3.472656 3.035156 -3.25 3.609375 -2.96875 C 4.179688 -2.6875 4.6875 -2.546875 5.125 -2.546875 C 6.394531 -2.546875 7.03125 -2.976562 7.03125 -3.84375 C 7.03125 -4.03125 6.984375 -4.203125 6.890625 -4.359375 C 6.796875 -4.515625 6.632812 -4.671875 6.40625 -4.828125 C 6.175781 -4.984375 5.972656 -5.101562 5.796875 -5.1875 C 5.617188 -5.28125 5.328125 -5.421875 4.921875 -5.609375 C 4.523438 -5.796875 4.234375 -5.9375 4.046875 -6.03125 C 3.242188 -6.425781 2.625 -6.921875 2.1875 -7.515625 C 1.75 -8.109375 1.53125 -8.75 1.53125 -9.4375 C 1.53125 -10.625 1.96875 -11.59375 2.84375 -12.34375 C 3.71875 -13.101562 4.71875 -13.484375 5.84375 -13.484375 Z M 5.84375 -13.484375 "/></g></g></g><g fill="#000000" fill-opacity="1"><g transform="translate(45.542843, 22.836779)"><g><path d="M 4.375 -2.140625 C 4.375 -1.304688 4.160156 -0.710938 3.734375 -0.359375 C 3.316406 -0.00390625 2.664062 0.171875 1.78125 0.171875 C 1.582031 0.171875 1.3125 0.140625 0.96875 0.078125 C 0.625 0.0234375 0.335938 -0.0390625 0.109375 -0.125 L 0.609375 -1.5625 C 0.722656 -1.488281 0.910156 -1.414062 1.171875 -1.34375 C 1.441406 -1.28125 1.65625 -1.25 1.8125 -1.25 C 2.09375 -1.25 2.296875 -1.285156 2.421875 -1.359375 C 2.546875 -1.429688 2.632812 -1.5625 2.6875 -1.75 C 2.738281 -1.9375 2.765625 -2.210938 2.765625 -2.578125 L 2.765625 -7.859375 L 4.375 -7.859375 Z M 4.375 -2.140625 "/></g></g></g><g fill="#000000" fill-opacity="1"><g transform="translate(51.371451, 22.836779)"><g><path d="M 0.15625 0 L 2.75 -7.859375 L 4.84375 -7.859375 L 7.4375 0 L 5.796875 0 L 5.28125 -1.59375 L 2.25 -1.59375 L 1.75 0 Z M 2.703125 -3 L 4.828125 -3 L 3.765625 -6.25 Z M 2.703125 -3 "/></g></g></g><g fill="#000000" fill-opacity="1"><g transform="translate(59.545358, 22.836779)"><g><path d="M 4.46875 0 L 2.578125 0 L 0.15625 -7.859375 L 1.78125 -7.859375 L 3.546875 -2 L 5.3125 -7.859375 L 6.90625 -7.859375 Z M 4.46875 0 "/></g></g></g><g fill="#000000" fill-opacity="1"><g transform="translate(67.185469, 22.836779)"><g><path d="M 0.15625 0 L 2.75 -7.859375 L 4.84375 -7.859375 L 7.4375 0 L 5.796875 0 L 5.28125 -1.59375 L 2.25 -1.59375 L 1.75 0 Z M 2.703125 -3 L 4.828125 -3 L 3.765625 -6.25 Z M 2.703125 -3 "/></g></g></g><g fill="#000000" fill-opacity="1"><g transform="translate(75.359376, 22.836779)"><g><path d="M 6.5 -2.28125 C 6.5 -1.488281 6.238281 -0.878906 5.71875 -0.453125 C 5.207031 -0.0351562 4.445312 0.171875 3.4375 0.171875 C 2.738281 0.171875 2.132812 0.0546875 1.625 -0.171875 C 1.113281 -0.410156 0.695312 -0.785156 0.375 -1.296875 L 1.609375 -2.234375 C 1.785156 -1.984375 1.953125 -1.789062 2.109375 -1.65625 C 2.273438 -1.53125 2.46875 -1.429688 2.6875 -1.359375 C 2.914062 -1.285156 3.175781 -1.25 3.46875 -1.25 C 3.90625 -1.25 4.242188 -1.320312 4.484375 -1.46875 C 4.734375 -1.625 4.859375 -1.851562 4.859375 -2.15625 C 4.859375 -2.332031 4.816406 -2.476562 4.734375 -2.59375 C 4.648438 -2.71875 4.519531 -2.820312 4.34375 -2.90625 C 4.175781 -2.988281 3.882812 -3.085938 3.46875 -3.203125 C 3.050781 -3.304688 2.660156 -3.410156 2.296875 -3.515625 C 1.941406 -3.628906 1.628906 -3.773438 1.359375 -3.953125 C 1.097656 -4.140625 0.890625 -4.363281 0.734375 -4.625 C 0.585938 -4.894531 0.515625 -5.234375 0.515625 -5.640625 C 0.515625 -6.390625 0.765625 -6.972656 1.265625 -7.390625 C 1.773438 -7.804688 2.5 -8.015625 3.4375 -8.015625 C 4.800781 -8.015625 5.765625 -7.550781 6.328125 -6.625 L 5.109375 -5.671875 C 4.890625 -6.003906 4.644531 -6.238281 4.375 -6.375 C 4.101562 -6.519531 3.785156 -6.59375 3.421875 -6.59375 C 3.046875 -6.59375 2.738281 -6.523438 2.5 -6.390625 C 2.269531 -6.265625 2.15625 -6.054688 2.15625 -5.765625 C 2.15625 -5.515625 2.273438 -5.320312 2.515625 -5.1875 C 2.765625 -5.050781 3.191406 -4.914062 3.796875 -4.78125 C 4.128906 -4.695312 4.457031 -4.601562 4.78125 -4.5 C 5.101562 -4.394531 5.390625 -4.253906 5.640625 -4.078125 C 5.898438 -3.898438 6.109375 -3.664062 6.265625 -3.375 C 6.421875 -3.09375 6.5 -2.726562 6.5 -2.28125 Z M 6.5 -2.28125 "/></g></g></g><g fill="#000000" fill-opacity="1"><g transform="translate(82.919983, 22.836779)"><g><path d="M 7.25 -1.296875 C 6.90625 -0.796875 6.488281 -0.425781 6 -0.1875 C 5.507812 0.0507812 4.90625 0.171875 4.1875 0.171875 C 1.757812 0.171875 0.546875 -1.191406 0.546875 -3.921875 C 0.546875 -5.316406 0.851562 -6.347656 1.46875 -7.015625 C 2.082031 -7.679688 2.972656 -8.015625 4.140625 -8.015625 C 4.910156 -8.015625 5.535156 -7.882812 6.015625 -7.625 C 6.503906 -7.375 6.875 -7.035156 7.125 -6.609375 L 5.875 -5.640625 C 5.695312 -5.921875 5.53125 -6.117188 5.375 -6.234375 C 5.226562 -6.359375 5.054688 -6.445312 4.859375 -6.5 C 4.671875 -6.5625 4.441406 -6.59375 4.171875 -6.59375 C 3.523438 -6.59375 3.035156 -6.390625 2.703125 -5.984375 C 2.367188 -5.578125 2.203125 -4.890625 2.203125 -3.921875 C 2.203125 -3.023438 2.359375 -2.351562 2.671875 -1.90625 C 2.984375 -1.46875 3.488281 -1.25 4.1875 -1.25 C 4.644531 -1.25 5.003906 -1.335938 5.265625 -1.515625 C 5.523438 -1.691406 5.765625 -1.929688 5.984375 -2.234375 Z M 7.25 -1.296875 "/></g></g></g><g fill="#000000" fill-opacity="1"><g transform="translate(91.071174, 22.836779)"><g><path d="M 5.265625 0 L 3.265625 -2.96875 L 2.453125 -2.96875 L 2.453125 0 L 0.84375 0 L 0.84375 -7.859375 L 3.703125 -7.859375 C 4.710938 -7.859375 5.453125 -7.675781 5.921875 -7.3125 C 6.390625 -6.945312 6.625 -6.347656 6.625 -5.515625 C 6.625 -4.847656 6.484375 -4.316406 6.203125 -3.921875 C 5.921875 -3.523438 5.519531 -3.269531 5 -3.15625 L 7.09375 0 Z M 5 -5.453125 C 5 -5.859375 4.894531 -6.128906 4.6875 -6.265625 C 4.488281 -6.398438 4.15625 -6.46875 3.6875 -6.46875 L 2.453125 -6.46875 L 2.453125 -4.375 L 3.625 -4.375 C 3.988281 -4.375 4.265625 -4.40625 4.453125 -4.46875 C 4.648438 -4.539062 4.789062 -4.644531 4.875 -4.78125 C 4.957031 -4.925781 5 -5.148438 5 -5.453125 Z M 5 -5.453125 "/></g></g></g><g fill="#000000" fill-opacity="1"><g transform="translate(98.944109, 22.836779)"><g><path d="M 4.375 0 L 0.578125 0 L 0.578125 -1.234375 L 1.671875 -1.234375 L 1.671875 -6.625 L 0.578125 -6.625 L 0.578125 -7.859375 L 4.375 -7.859375 L 4.375 -6.625 L 3.28125 -6.625 L 3.28125 -1.234375 L 4.375 -1.234375 Z M 4.375 0 "/></g></g></g><g fill="#000000" fill-opacity="1"><g transform="translate(104.477423, 22.836779)"><g><path d="M 6.59375 -5.21875 C 6.59375 -4.269531 6.367188 -3.566406 5.921875 -3.109375 C 5.472656 -2.648438 4.75 -2.421875 3.75 -2.421875 L 2.453125 -2.421875 L 2.453125 0 L 0.84375 0 L 0.84375 -7.859375 L 3.796875 -7.859375 C 4.691406 -7.859375 5.378906 -7.648438 5.859375 -7.234375 C 6.347656 -6.816406 6.59375 -6.144531 6.59375 -5.21875 Z M 4.9375 -5.203125 C 4.9375 -5.648438 4.8125 -5.972656 4.5625 -6.171875 C 4.320312 -6.367188 3.882812 -6.46875 3.25 -6.46875 L 2.453125 -6.46875 L 2.453125 -3.828125 L 3.109375 -3.828125 C 3.691406 -3.828125 4.09375 -3.863281 4.3125 -3.9375 C 4.539062 -4.019531 4.703125 -4.160156 4.796875 -4.359375 C 4.890625 -4.554688 4.9375 -4.835938 4.9375 -5.203125 Z M 4.9375 -5.203125 "/></g></g></g><g fill="#000000" fill-opacity="1"><g transform="translate(112.094817, 22.836779)"><g><path d="M 4.21875 -6.390625 L 4.21875 0 L 2.609375 0 L 2.609375 -6.390625 L 0.203125 -6.390625 L 0.203125 -7.859375 L 6.640625 -7.859375 L 6.640625 -6.390625 Z M 4.21875 -6.390625 "/></g></g></g><g fill="#000000" fill-opacity="1"><g transform="translate(119.51725, 22.836779)"><g/></g></g></svg>