<svg xmlns="http://www.w3.org/2000/svg" xmlns:xlink="http://www.w3.org/1999/xlink" width="172" zoomAndPan="magnify" viewBox="0 0 129 37.5" height="50" preserveAspectRatio="xMidYMid meet" version="1.0"><defs><g/><clipPath id="746a2819b5"><path d="M 0.847656 0 L 128.148438 0 L 128.148438 37.007812 L 0.847656 37.007812 Z M 0.847656 0 " clip-rule="nonzero"/></clipPath><clipPath id="cc6e3cd809"><path d="M 4.390625 0 L 124.609375 0 L 124.609375 37.007812 L 4.390625 37.007812 Z M 4.390625 0 " clip-rule="nonzero"/></clipPath><clipPath id="a4b46910c8"><path d="M 20.121094 4.226562 L 44.90625 4.226562 L 44.90625 32.726562 L 20.121094 32.726562 Z M 20.121094 4.226562 " clip-rule="nonzero"/></clipPath></defs><g clip-path="url(#746a2819b5)"><path fill="#ffffff" d="M 0.847656 0 L 128.152344 0 L 128.152344 37.007812 L 0.847656 37.007812 Z M 0.847656 0 " fill-opacity="1" fill-rule="nonzero"/><path fill="#6da55f" d="M 0.847656 0 L 128.152344 0 L 128.152344 37.007812 L 0.847656 37.007812 Z M 0.847656 0 " fill-opacity="1" fill-rule="nonzero"/></g><g clip-path="url(#cc6e3cd809)"><path fill="#6da55f" d="M 4.390625 0 L 124.660156 0 L 124.660156 37.007812 L 4.390625 37.007812 Z M 4.390625 0 " fill-opacity="1" fill-rule="nonzero"/></g><g fill="#ffffff" fill-opacity="1"><g transform="translate(49.92193, 23.54015)"><g><path d="M 7.0625 0 L 3.234375 -7.5 L 3.234375 0 L 1.140625 0 L 1.140625 -10.5 L 3.921875 -10.5 L 7.484375 -3.421875 L 7.484375 -10.5 L 9.578125 -10.5 L 9.578125 0 Z M 7.0625 0 "/></g></g></g><g fill="#ffffff" fill-opacity="1"><g transform="translate(61.411276, 23.54015)"><g><path d="M 9.703125 -5.25 C 9.703125 -3.425781 9.316406 -2.054688 8.546875 -1.140625 C 7.773438 -0.234375 6.648438 0.21875 5.171875 0.21875 C 3.617188 0.21875 2.476562 -0.257812 1.75 -1.21875 C 1.019531 -2.175781 0.65625 -3.519531 0.65625 -5.25 C 0.65625 -6.988281 1.019531 -8.332031 1.75 -9.28125 C 2.476562 -10.238281 3.617188 -10.71875 5.171875 -10.71875 C 6.734375 -10.71875 7.878906 -10.238281 8.609375 -9.28125 C 9.335938 -8.332031 9.703125 -6.988281 9.703125 -5.25 Z M 7.5 -5.25 C 7.5 -6.5 7.320312 -7.40625 6.96875 -7.96875 C 6.613281 -8.539062 6.015625 -8.828125 5.171875 -8.828125 C 4.335938 -8.828125 3.742188 -8.539062 3.390625 -7.96875 C 3.035156 -7.40625 2.859375 -6.5 2.859375 -5.25 C 2.859375 -4.007812 3.035156 -3.101562 3.390625 -2.53125 C 3.753906 -1.957031 4.347656 -1.671875 5.171875 -1.671875 C 6.015625 -1.671875 6.613281 -1.957031 6.96875 -2.53125 C 7.320312 -3.101562 7.5 -4.007812 7.5 -5.25 Z M 7.5 -5.25 "/></g></g></g><g fill="#ffffff" fill-opacity="1"><g transform="translate(72.54381, 23.54015)"><g><path d="M 9.3125 -5.25 C 9.3125 -3.988281 9.132812 -2.972656 8.78125 -2.203125 C 8.4375 -1.429688 7.910156 -0.867188 7.203125 -0.515625 C 6.503906 -0.171875 5.519531 0 4.25 0 L 1.046875 0 L 1.046875 -10.5 L 4.21875 -10.5 C 5.457031 -10.5 6.441406 -10.316406 7.171875 -9.953125 C 7.898438 -9.597656 8.4375 -9.039062 8.78125 -8.28125 C 9.132812 -7.519531 9.3125 -6.507812 9.3125 -5.25 Z M 7.109375 -5.265625 C 7.109375 -6.179688 7.015625 -6.859375 6.828125 -7.296875 C 6.648438 -7.742188 6.347656 -8.0625 5.921875 -8.25 C 5.492188 -8.445312 4.859375 -8.546875 4.015625 -8.546875 L 3.1875 -8.546875 L 3.1875 -1.953125 L 4.015625 -1.953125 C 4.859375 -1.953125 5.492188 -2.050781 5.921875 -2.25 C 6.347656 -2.445312 6.648438 -2.769531 6.828125 -3.21875 C 7.015625 -3.675781 7.109375 -4.359375 7.109375 -5.265625 Z M 7.109375 -5.265625 "/></g></g></g><g fill="#ffffff" fill-opacity="1"><g transform="translate(83.289165, 23.54015)"><g><path d="M 1.140625 0 L 1.140625 -10.5 L 7.96875 -10.5 L 7.96875 -8.609375 L 3.28125 -8.609375 L 3.28125 -6.375 L 7.234375 -6.375 L 7.234375 -4.484375 L 3.28125 -4.484375 L 3.28125 -1.953125 L 7.96875 -1.953125 L 7.96875 0 Z M 1.140625 0 "/></g></g></g><g fill="#ffffff" fill-opacity="1"><g transform="translate(92.789474, 23.54015)"><g><path d="M 3.453125 -1.09375 C 3.453125 -0.664062 3.351562 -0.359375 3.15625 -0.171875 C 2.957031 0.015625 2.640625 0.109375 2.203125 0.109375 C 1.734375 0.109375 1.410156 0.00390625 1.234375 -0.203125 C 1.066406 -0.410156 0.984375 -0.707031 0.984375 -1.09375 C 0.984375 -1.507812 1.070312 -1.816406 1.25 -2.015625 C 1.4375 -2.210938 1.753906 -2.3125 2.203125 -2.3125 C 2.671875 -2.3125 2.992188 -2.210938 3.171875 -2.015625 C 3.359375 -1.828125 3.453125 -1.519531 3.453125 -1.09375 Z M 3.453125 -1.09375 "/></g></g></g><g fill="#ffffff" fill-opacity="1"><g transform="translate(98.000446, 23.54015)"><g><path d="M 5.84375 -2.859375 C 5.84375 -1.753906 5.5625 -0.960938 5 -0.484375 C 4.445312 -0.00390625 3.570312 0.234375 2.375 0.234375 C 2.113281 0.234375 1.753906 0.191406 1.296875 0.109375 C 0.835938 0.0351562 0.457031 -0.0546875 0.15625 -0.171875 L 0.796875 -2.078125 C 0.960938 -1.992188 1.222656 -1.898438 1.578125 -1.796875 C 1.941406 -1.703125 2.222656 -1.65625 2.421875 -1.65625 C 2.796875 -1.65625 3.066406 -1.707031 3.234375 -1.8125 C 3.398438 -1.914062 3.519531 -2.09375 3.59375 -2.34375 C 3.664062 -2.59375 3.703125 -2.957031 3.703125 -3.4375 L 3.703125 -10.5 L 5.84375 -10.5 Z M 5.84375 -2.859375 "/></g></g></g><g fill="#ffffff" fill-opacity="1"><g transform="translate(105.79261, 23.54015)"><g><path d="M 8.6875 -3.046875 C 8.6875 -1.992188 8.34375 -1.1875 7.65625 -0.625 C 6.96875 -0.0625 5.945312 0.21875 4.59375 0.21875 C 3.664062 0.21875 2.859375 0.0664062 2.171875 -0.234375 C 1.484375 -0.546875 0.925781 -1.046875 0.5 -1.734375 L 2.140625 -3 C 2.390625 -2.65625 2.625 -2.394531 2.84375 -2.21875 C 3.0625 -2.050781 3.316406 -1.914062 3.609375 -1.8125 C 3.910156 -1.71875 4.253906 -1.671875 4.640625 -1.671875 C 5.222656 -1.671875 5.675781 -1.769531 6 -1.96875 C 6.332031 -2.175781 6.5 -2.484375 6.5 -2.890625 C 6.5 -3.117188 6.441406 -3.3125 6.328125 -3.46875 C 6.210938 -3.632812 6.039062 -3.769531 5.8125 -3.875 C 5.582031 -3.988281 5.1875 -4.125 4.625 -4.28125 C 4.082031 -4.425781 3.566406 -4.570312 3.078125 -4.71875 C 2.597656 -4.863281 2.179688 -5.054688 1.828125 -5.296875 C 1.484375 -5.535156 1.207031 -5.832031 1 -6.1875 C 0.800781 -6.550781 0.703125 -7.003906 0.703125 -7.546875 C 0.703125 -8.546875 1.035156 -9.320312 1.703125 -9.875 C 2.378906 -10.4375 3.34375 -10.71875 4.59375 -10.71875 C 6.414062 -10.71875 7.703125 -10.097656 8.453125 -8.859375 L 6.828125 -7.578125 C 6.535156 -8.023438 6.207031 -8.34375 5.84375 -8.53125 C 5.488281 -8.726562 5.0625 -8.828125 4.5625 -8.828125 C 4.070312 -8.828125 3.671875 -8.738281 3.359375 -8.5625 C 3.046875 -8.382812 2.890625 -8.101562 2.890625 -7.71875 C 2.890625 -7.375 3.050781 -7.113281 3.375 -6.9375 C 3.695312 -6.757812 4.265625 -6.578125 5.078125 -6.390625 C 5.515625 -6.273438 5.953125 -6.148438 6.390625 -6.015625 C 6.828125 -5.878906 7.210938 -5.691406 7.546875 -5.453125 C 7.890625 -5.210938 8.164062 -4.898438 8.375 -4.515625 C 8.582031 -4.140625 8.6875 -3.648438 8.6875 -3.046875 Z M 8.6875 -3.046875 "/></g></g></g><g clip-path="url(#a4b46910c8)"><path fill="#ffffff" d="M 32.660156 32.472656 C 32.269531 32.472656 31.910156 32.367188 31.574219 32.1875 L 28.132812 30.144531 C 27.613281 29.859375 27.875 29.757812 28.027344 29.703125 C 28.726562 29.472656 28.855469 29.417969 29.582031 29.007812 C 29.660156 28.953125 29.761719 28.980469 29.839844 29.03125 L 32.476562 30.609375 C 32.582031 30.660156 32.710938 30.660156 32.789062 30.609375 L 43.109375 24.632812 C 43.214844 24.582031 43.265625 24.480469 43.265625 24.347656 L 43.265625 12.421875 C 43.265625 12.292969 43.214844 12.191406 43.109375 12.136719 L 32.789062 6.1875 C 32.6875 6.136719 32.554688 6.136719 32.476562 6.1875 L 22.15625 12.136719 C 22.050781 12.191406 22 12.320312 22 12.421875 L 22 24.347656 C 22 24.453125 22.050781 24.582031 22.15625 24.632812 L 24.976562 26.265625 C 26.503906 27.039062 27.460938 26.136719 27.460938 25.230469 L 27.460938 13.457031 C 27.460938 13.304688 27.589844 13.148438 27.769531 13.148438 L 29.089844 13.148438 C 29.246094 13.148438 29.398438 13.277344 29.398438 13.457031 L 29.398438 25.230469 C 29.398438 27.273438 28.289062 28.464844 26.347656 28.464844 C 25.753906 28.464844 25.285156 28.464844 23.96875 27.816406 L 21.25 26.265625 C 20.578125 25.875 20.164062 25.152344 20.164062 24.375 L 20.164062 12.449219 C 20.164062 11.671875 20.578125 10.949219 21.25 10.5625 L 31.574219 4.585938 C 32.21875 4.222656 33.101562 4.222656 33.746094 4.585938 L 44.070312 10.558594 C 44.742188 10.949219 45.15625 11.671875 45.15625 12.449219 L 45.15625 24.375 C 45.15625 25.152344 44.742188 25.875 44.070312 26.261719 L 33.746094 32.238281 C 33.410156 32.394531 33.023438 32.472656 32.660156 32.472656 Z M 35.84375 24.273438 C 31.3125 24.273438 30.382812 22.203125 30.382812 20.441406 C 30.382812 20.289062 30.511719 20.132812 30.695312 20.132812 L 32.039062 20.132812 C 32.195312 20.132812 32.324219 20.234375 32.324219 20.390625 C 32.53125 21.761719 33.125 22.433594 35.867188 22.433594 C 38.039062 22.433594 38.972656 21.941406 38.972656 20.78125 C 38.972656 20.105469 38.714844 19.613281 35.324219 19.277344 C 32.503906 18.992188 30.746094 18.371094 30.746094 16.121094 C 30.746094 14.027344 32.503906 12.785156 35.453125 12.785156 C 38.765625 12.785156 40.394531 13.921875 40.601562 16.40625 C 40.601562 16.484375 40.574219 16.5625 40.523438 16.640625 C 40.472656 16.691406 40.394531 16.742188 40.316406 16.742188 L 38.972656 16.742188 C 38.84375 16.742188 38.714844 16.640625 38.6875 16.511719 C 38.378906 15.089844 37.574219 14.621094 35.453125 14.621094 C 33.074219 14.621094 32.789062 15.449219 32.789062 16.070312 C 32.789062 16.820312 33.125 17.054688 36.332031 17.46875 C 39.515625 17.882812 41.015625 18.476562 41.015625 20.703125 C 40.988281 22.976562 39.128906 24.273438 35.84375 24.273438 Z M 35.84375 24.273438 " fill-opacity="1" fill-rule="nonzero"/></g></svg>