<svg xmlns="http://www.w3.org/2000/svg" xmlns:xlink="http://www.w3.org/1999/xlink" width="172" zoomAndPan="magnify" viewBox="0 0 129 37.5" height="50" preserveAspectRatio="xMidYMid meet" version="1.0"><defs><g/><clipPath id="a77c9d3887"><path d="M 0.847656 0 L 128.148438 0 L 128.148438 37.007812 L 0.847656 37.007812 Z M 0.847656 0 " clip-rule="nonzero"/></clipPath><clipPath id="80f63fcac9"><path d="M 4.550781 0 L 124.308594 0 L 124.308594 36.863281 L 4.550781 36.863281 Z M 4.550781 0 " clip-rule="nonzero"/></clipPath><clipPath id="783059d0e8"><path d="M 16.421875 0.738281 L 112.984375 0.738281 L 112.984375 36.066406 L 16.421875 36.066406 Z M 16.421875 0.738281 " clip-rule="nonzero"/></clipPath><clipPath id="a2389d4c9c"><path d="M 103 13 L 112.984375 13 L 112.984375 27 L 103 27 Z M 103 13 " clip-rule="nonzero"/></clipPath></defs><g clip-path="url(#a77c9d3887)"><path fill="#ffffff" d="M 0.847656 0 L 128.152344 0 L 128.152344 37.007812 L 0.847656 37.007812 Z M 0.847656 0 " fill-opacity="1" fill-rule="nonzero"/><path fill="#007acc" d="M 0.847656 0 L 128.152344 0 L 128.152344 37.007812 L 0.847656 37.007812 Z M 0.847656 0 " fill-opacity="1" fill-rule="nonzero"/></g><g clip-path="url(#80f63fcac9)"><path fill="#007acc" d="M 4.550781 0 L 124.359375 0 L 124.359375 36.863281 L 4.550781 36.863281 Z M 4.550781 0 " fill-opacity="1" fill-rule="nonzero"/></g><g clip-path="url(#783059d0e8)"><rect x="-12.9" width="154.8" fill="#007acc" y="-3.75" height="45" fill-opacity="1"/></g><g fill="#ffffff" fill-opacity="1"><g transform="translate(17.121735, 26.596107)"><g><path d="M 7.59375 0 L 4.875 0 L 0.125 -13.015625 L 2.9375 -13.015625 L 5.578125 -4.65625 C 5.742188 -4.113281 5.96875 -3.296875 6.25 -2.203125 L 6.4375 -3 L 6.90625 -4.65625 L 9.53125 -13.015625 L 12.3125 -13.015625 Z M 7.59375 0 "/></g></g></g><g fill="#ffffff" fill-opacity="1"><g transform="translate(33.396927, 26.596107)"><g><path d="M 11.71875 -3.75 C 11.71875 -2.476562 11.25 -1.503906 10.3125 -0.828125 C 9.382812 -0.148438 8.019531 0.1875 6.21875 0.1875 C 4.570312 0.1875 3.28125 -0.109375 2.34375 -0.703125 C 1.40625 -1.296875 0.800781 -2.191406 0.53125 -3.390625 L 3.140625 -3.828125 C 3.304688 -3.140625 3.644531 -2.640625 4.15625 -2.328125 C 4.664062 -2.015625 5.375 -1.859375 6.28125 -1.859375 C 8.15625 -1.859375 9.09375 -2.4375 9.09375 -3.59375 C 9.09375 -3.957031 8.984375 -4.257812 8.765625 -4.5 C 8.554688 -4.75 8.253906 -4.953125 7.859375 -5.109375 C 7.472656 -5.265625 6.722656 -5.457031 5.609375 -5.6875 C 4.648438 -5.914062 3.984375 -6.097656 3.609375 -6.234375 C 3.234375 -6.378906 2.890625 -6.546875 2.578125 -6.734375 C 2.273438 -6.921875 2.019531 -7.144531 1.8125 -7.40625 C 1.601562 -7.675781 1.4375 -7.988281 1.3125 -8.34375 C 1.195312 -8.695312 1.140625 -9.109375 1.140625 -9.578125 C 1.140625 -10.753906 1.570312 -11.65625 2.4375 -12.28125 C 3.3125 -12.90625 4.582031 -13.21875 6.25 -13.21875 C 7.84375 -13.21875 9.035156 -12.960938 9.828125 -12.453125 C 10.628906 -11.953125 11.144531 -11.117188 11.375 -9.953125 L 8.765625 -9.59375 C 8.640625 -10.15625 8.367188 -10.578125 7.953125 -10.859375 C 7.546875 -11.140625 6.957031 -11.28125 6.1875 -11.28125 C 4.5625 -11.28125 3.75 -10.765625 3.75 -9.734375 C 3.75 -9.390625 3.832031 -9.109375 4 -8.890625 C 4.175781 -8.679688 4.4375 -8.5 4.78125 -8.34375 C 5.125 -8.195312 5.8125 -8.007812 6.84375 -7.78125 C 8.082031 -7.507812 8.96875 -7.257812 9.5 -7.03125 C 10.03125 -6.8125 10.445312 -6.550781 10.75 -6.25 C 11.0625 -5.957031 11.300781 -5.601562 11.46875 -5.1875 C 11.632812 -4.769531 11.71875 -4.289062 11.71875 -3.75 Z M 11.71875 -3.75 "/></g></g></g><g fill="#ffffff" fill-opacity="1"><g transform="translate(49.672117, 26.596107)"><g><path d="M 7.234375 -1.953125 C 8.859375 -1.953125 9.988281 -2.78125 10.625 -4.4375 L 12.96875 -3.53125 C 12.457031 -2.28125 11.710938 -1.347656 10.734375 -0.734375 C 9.765625 -0.117188 8.597656 0.1875 7.234375 0.1875 C 5.171875 0.1875 3.578125 -0.40625 2.453125 -1.59375 C 1.328125 -2.78125 0.765625 -4.4375 0.765625 -6.5625 C 0.765625 -8.707031 1.304688 -10.351562 2.390625 -11.5 C 3.484375 -12.644531 5.0625 -13.21875 7.125 -13.21875 C 8.625 -13.21875 9.847656 -12.910156 10.796875 -12.296875 C 11.742188 -11.679688 12.410156 -10.78125 12.796875 -9.59375 L 10.4375 -8.9375 C 10.226562 -9.582031 9.832031 -10.097656 9.25 -10.484375 C 8.664062 -10.867188 7.972656 -11.0625 7.171875 -11.0625 C 5.960938 -11.0625 5.039062 -10.679688 4.40625 -9.921875 C 3.78125 -9.160156 3.46875 -8.039062 3.46875 -6.5625 C 3.46875 -5.070312 3.789062 -3.929688 4.4375 -3.140625 C 5.082031 -2.347656 6.015625 -1.953125 7.234375 -1.953125 Z M 7.234375 -1.953125 "/></g></g></g><g fill="#ffffff" fill-opacity="1"><g transform="translate(66.97635, 26.596107)"><g><path d="M 13.734375 -6.5625 C 13.734375 -5.207031 13.46875 -4.015625 12.9375 -2.984375 C 12.40625 -1.960938 11.644531 -1.175781 10.65625 -0.625 C 9.675781 -0.0820312 8.53125 0.1875 7.21875 0.1875 C 5.207031 0.1875 3.628906 -0.410156 2.484375 -1.609375 C 1.335938 -2.816406 0.765625 -4.46875 0.765625 -6.5625 C 0.765625 -8.65625 1.332031 -10.285156 2.46875 -11.453125 C 3.613281 -12.628906 5.203125 -13.21875 7.234375 -13.21875 C 9.273438 -13.21875 10.867188 -12.625 12.015625 -11.4375 C 13.160156 -10.257812 13.734375 -8.632812 13.734375 -6.5625 Z M 10.984375 -6.5625 C 10.984375 -7.96875 10.65625 -9.066406 10 -9.859375 C 9.34375 -10.660156 8.421875 -11.0625 7.234375 -11.0625 C 6.035156 -11.0625 5.109375 -10.664062 4.453125 -9.875 C 3.796875 -9.082031 3.46875 -7.976562 3.46875 -6.5625 C 3.46875 -5.132812 3.800781 -4.007812 4.46875 -3.1875 C 5.144531 -2.363281 6.0625 -1.953125 7.21875 -1.953125 C 8.425781 -1.953125 9.351562 -2.351562 10 -3.15625 C 10.65625 -3.957031 10.984375 -5.09375 10.984375 -6.5625 Z M 10.984375 -6.5625 "/></g></g></g><g fill="#ffffff" fill-opacity="1"><g transform="translate(85.321287, 26.596107)"><g><path d="M 12.6875 -6.609375 C 12.6875 -5.265625 12.425781 -4.09375 11.90625 -3.09375 C 11.382812 -2.09375 10.648438 -1.328125 9.703125 -0.796875 C 8.753906 -0.265625 7.664062 0 6.4375 0 L 1.25 0 L 1.25 -13.015625 L 5.890625 -13.015625 C 8.054688 -13.015625 9.726562 -12.460938 10.90625 -11.359375 C 12.09375 -10.253906 12.6875 -8.671875 12.6875 -6.609375 Z M 9.984375 -6.609375 C 9.984375 -8.003906 9.625 -9.066406 8.90625 -9.796875 C 8.1875 -10.535156 7.164062 -10.90625 5.84375 -10.90625 L 3.9375 -10.90625 L 3.9375 -2.109375 L 6.21875 -2.109375 C 7.363281 -2.109375 8.273438 -2.507812 8.953125 -3.3125 C 9.640625 -4.125 9.984375 -5.222656 9.984375 -6.609375 Z M 9.984375 -6.609375 "/></g></g></g><g clip-path="url(#a2389d4c9c)"><g fill="#ffffff" fill-opacity="1"><g transform="translate(102.62552, 26.596107)"><g><path d="M 1.25 0 L 1.25 -13.015625 L 11.34375 -13.015625 L 11.34375 -10.90625 L 3.9375 -10.90625 L 3.9375 -7.640625 L 10.78125 -7.640625 L 10.78125 -5.53125 L 3.9375 -5.53125 L 3.9375 -2.109375 L 11.71875 -2.109375 L 11.71875 0 Z M 1.25 0 "/></g></g></g></g></svg>