<svg xmlns="http://www.w3.org/2000/svg" xmlns:xlink="http://www.w3.org/1999/xlink" width="172" zoomAndPan="magnify" viewBox="0 0 129 37.5" height="50" preserveAspectRatio="xMidYMid meet" version="1.0"><defs><g/><clipPath id="b384e831e1"><path d="M 0.847656 0 L 128.148438 0 L 128.148438 37.007812 L 0.847656 37.007812 Z M 0.847656 0 " clip-rule="nonzero"/></clipPath><clipPath id="dabdac4ea7"><path d="M 4.550781 0.0976562 L 124.449219 0.0976562 L 124.449219 37.007812 L 4.550781 37.007812 Z M 4.550781 0.0976562 " clip-rule="nonzero"/></clipPath><clipPath id="374ac900bb"><path d="M 10.277344 8.65625 L 118.886719 8.65625 L 118.886719 32.265625 L 10.277344 32.265625 Z M 10.277344 8.65625 " clip-rule="nonzero"/></clipPath></defs><g clip-path="url(#b384e831e1)"><path fill="#ffffff" d="M 0.847656 0 L 128.152344 0 L 128.152344 37.007812 L 0.847656 37.007812 Z M 0.847656 0 " fill-opacity="1" fill-rule="nonzero"/><path fill="#000000" d="M 0.847656 0 L 128.152344 0 L 128.152344 37.007812 L 0.847656 37.007812 Z M 0.847656 0 " fill-opacity="1" fill-rule="nonzero"/></g><g clip-path="url(#dabdac4ea7)"><path fill="#000000" d="M 4.550781 0.0976562 L 124.5 0.0976562 L 124.5 37.007812 L 4.550781 37.007812 Z M 4.550781 0.0976562 " fill-opacity="1" fill-rule="nonzero"/></g><g clip-path="url(#374ac900bb)"><rect x="-12.9" width="154.8" fill="#000000" y="-3.75" height="45" fill-opacity="1"/></g><g fill="#ffffff" fill-opacity="1"><g transform="translate(12.795354, 24.586453)"><g><path d="M 11.21875 0 L 8.71875 0 L 7.34375 -5.875 C 7.175781 -6.5625 7.035156 -7.28125 6.921875 -8.03125 C 6.804688 -7.40625 6.710938 -6.925781 6.640625 -6.59375 C 6.578125 -6.269531 6.070312 -4.070312 5.125 0 L 2.609375 0 L 0.015625 -10.140625 L 2.15625 -10.140625 L 3.625 -3.59375 L 3.953125 -2.015625 C 4.078125 -2.679688 4.203125 -3.316406 4.328125 -3.921875 C 4.460938 -4.523438 4.941406 -6.597656 5.765625 -10.140625 L 8.125 -10.140625 L 9.40625 -4.75 C 9.507812 -4.34375 9.679688 -3.429688 9.921875 -2.015625 L 10.09375 -2.84375 L 10.46875 -4.5 L 11.6875 -10.140625 L 13.828125 -10.140625 Z M 11.21875 0 "/></g></g></g><g fill="#ffffff" fill-opacity="1"><g transform="translate(31.088825, 24.586453)"><g><path d="M 0.984375 0 L 0.984375 -10.140625 L 3.09375 -10.140625 L 3.09375 0 Z M 0.984375 0 "/></g></g></g><g fill="#ffffff" fill-opacity="1"><g transform="translate(39.614472, 24.586453)"><g><path d="M 7.125 0 L 2.734375 -7.8125 C 2.816406 -7.050781 2.859375 -6.441406 2.859375 -5.984375 L 2.859375 0 L 0.984375 0 L 0.984375 -10.140625 L 3.390625 -10.140625 L 7.859375 -2.265625 C 7.773438 -2.992188 7.734375 -3.65625 7.734375 -4.25 L 7.734375 -10.140625 L 9.609375 -10.140625 L 9.609375 0 Z M 7.125 0 "/></g></g></g><g fill="#ffffff" fill-opacity="1"><g transform="translate(54.655822, 24.586453)"><g><path d="M 9.984375 -5.15625 C 9.984375 -4.101562 9.773438 -3.1875 9.359375 -2.40625 C 8.953125 -1.625 8.375 -1.023438 7.625 -0.609375 C 6.882812 -0.203125 6.03125 0 5.0625 0 L 0.984375 0 L 0.984375 -10.140625 L 4.640625 -10.140625 C 6.335938 -10.140625 7.648438 -9.707031 8.578125 -8.84375 C 9.515625 -7.988281 9.984375 -6.757812 9.984375 -5.15625 Z M 7.859375 -5.15625 C 7.859375 -6.238281 7.570312 -7.066406 7 -7.640625 C 6.4375 -8.210938 5.632812 -8.5 4.59375 -8.5 L 3.09375 -8.5 L 3.09375 -1.640625 L 4.890625 -1.640625 C 5.796875 -1.640625 6.515625 -1.953125 7.046875 -2.578125 C 7.585938 -3.210938 7.859375 -4.070312 7.859375 -5.15625 Z M 7.859375 -5.15625 "/></g></g></g><g fill="#ffffff" fill-opacity="1"><g transform="translate(69.697171, 24.586453)"><g><path d="M 10.796875 -5.125 C 10.796875 -4.0625 10.585938 -3.128906 10.171875 -2.328125 C 9.753906 -1.523438 9.160156 -0.910156 8.390625 -0.484375 C 7.617188 -0.0664062 6.71875 0.140625 5.6875 0.140625 C 4.09375 0.140625 2.847656 -0.328125 1.953125 -1.265625 C 1.054688 -2.203125 0.609375 -3.488281 0.609375 -5.125 C 0.609375 -6.75 1.054688 -8.015625 1.953125 -8.921875 C 2.847656 -9.835938 4.097656 -10.296875 5.703125 -10.296875 C 7.296875 -10.296875 8.539062 -9.832031 9.4375 -8.90625 C 10.34375 -7.988281 10.796875 -6.726562 10.796875 -5.125 Z M 8.640625 -5.125 C 8.640625 -6.21875 8.378906 -7.070312 7.859375 -7.6875 C 7.347656 -8.3125 6.628906 -8.625 5.703125 -8.625 C 4.753906 -8.625 4.019531 -8.316406 3.5 -7.703125 C 2.988281 -7.085938 2.734375 -6.226562 2.734375 -5.125 C 2.734375 -4.007812 2.992188 -3.128906 3.515625 -2.484375 C 4.046875 -1.847656 4.769531 -1.53125 5.6875 -1.53125 C 6.625 -1.53125 7.347656 -1.84375 7.859375 -2.46875 C 8.378906 -3.09375 8.640625 -3.976562 8.640625 -5.125 Z M 8.640625 -5.125 "/></g></g></g><g fill="#ffffff" fill-opacity="1"><g transform="translate(85.556707, 24.586453)"><g><path d="M 11.21875 0 L 8.71875 0 L 7.34375 -5.875 C 7.175781 -6.5625 7.035156 -7.28125 6.921875 -8.03125 C 6.804688 -7.40625 6.710938 -6.925781 6.640625 -6.59375 C 6.578125 -6.269531 6.070312 -4.070312 5.125 0 L 2.609375 0 L 0.015625 -10.140625 L 2.15625 -10.140625 L 3.625 -3.59375 L 3.953125 -2.015625 C 4.078125 -2.679688 4.203125 -3.316406 4.328125 -3.921875 C 4.460938 -4.523438 4.941406 -6.597656 5.765625 -10.140625 L 8.125 -10.140625 L 9.40625 -4.75 C 9.507812 -4.34375 9.679688 -3.429688 9.921875 -2.015625 L 10.09375 -2.84375 L 10.46875 -4.5 L 11.6875 -10.140625 L 13.828125 -10.140625 Z M 11.21875 0 "/></g></g></g><g fill="#ffffff" fill-opacity="1"><g transform="translate(103.852471, 24.586453)"><g><path d="M 9.21875 -2.921875 C 9.21875 -1.929688 8.847656 -1.171875 8.109375 -0.640625 C 7.378906 -0.117188 6.304688 0.140625 4.890625 0.140625 C 3.585938 0.140625 2.566406 -0.0859375 1.828125 -0.546875 C 1.097656 -1.003906 0.628906 -1.703125 0.421875 -2.640625 L 2.46875 -2.984375 C 2.601562 -2.441406 2.867188 -2.050781 3.265625 -1.8125 C 3.671875 -1.570312 4.226562 -1.453125 4.9375 -1.453125 C 6.414062 -1.453125 7.15625 -1.898438 7.15625 -2.796875 C 7.15625 -3.085938 7.066406 -3.328125 6.890625 -3.515625 C 6.722656 -3.703125 6.484375 -3.859375 6.171875 -3.984375 C 5.867188 -4.109375 5.28125 -4.257812 4.40625 -4.4375 C 3.65625 -4.613281 3.128906 -4.753906 2.828125 -4.859375 C 2.535156 -4.972656 2.269531 -5.101562 2.03125 -5.25 C 1.789062 -5.394531 1.585938 -5.566406 1.421875 -5.765625 C 1.253906 -5.972656 1.125 -6.21875 1.03125 -6.5 C 0.9375 -6.78125 0.890625 -7.101562 0.890625 -7.46875 C 0.890625 -8.382812 1.234375 -9.082031 1.921875 -9.5625 C 2.609375 -10.050781 3.609375 -10.296875 4.921875 -10.296875 C 6.171875 -10.296875 7.109375 -10.097656 7.734375 -9.703125 C 8.359375 -9.316406 8.765625 -8.664062 8.953125 -7.75 L 6.90625 -7.46875 C 6.789062 -7.90625 6.570312 -8.234375 6.25 -8.453125 C 5.9375 -8.679688 5.476562 -8.796875 4.875 -8.796875 C 3.59375 -8.796875 2.953125 -8.390625 2.953125 -7.578125 C 2.953125 -7.316406 3.019531 -7.101562 3.15625 -6.9375 C 3.289062 -6.769531 3.488281 -6.625 3.75 -6.5 C 4.019531 -6.382812 4.566406 -6.238281 5.390625 -6.0625 C 6.359375 -5.851562 7.050781 -5.660156 7.46875 -5.484375 C 7.882812 -5.316406 8.210938 -5.113281 8.453125 -4.875 C 8.703125 -4.644531 8.890625 -4.367188 9.015625 -4.046875 C 9.148438 -3.722656 9.21875 -3.347656 9.21875 -2.921875 Z M 9.21875 -2.921875 "/></g></g></g></svg>