<?xml version="1.0" encoding="UTF-8"?>
<svg id="Camada_1" data-name="Camada 1" xmlns="http://www.w3.org/2000/svg" viewBox="0 0 456.86 489.51">
  <defs>
    <style>
      .cls-1 {
        fill: #6781d1;
      }

      .cls-1, .cls-2, .cls-3 {
        fill-rule: evenodd;
      }

      .cls-2 {
        fill: #8ba7ff;
      }

      .cls-3 {
        fill: #3e59ab;
      }

      .cls-4 {
        fill: #1d1d1b;
      }
    </style>
  </defs>
  <path class="cls-3" d="m456.81,119.37v250.77l-228.35,119.37v-250.77l228.35-119.37Z"/>
  <path class="cls-1" d="m228.46,238.79v250.66L0,370.19V119.42l228.46,119.37h0Z"/>
  <polygon class="cls-2" points="456.86 119.37 228.51 238.74 .05 119.37 228.51 0 456.86 119.37 456.86 119.37"/>
  <g>
    <path class="cls-4" d="m227.74,37.27c52.64,26.94,105.28,53.88,157.92,80.71-14.19,7.61-28.38,15.11-42.57,22.72-19.02-9.66-38.04-19.43-56.96-29.1-19.02,10.08-37.94,20.25-56.96,30.43-14.39-7.3-28.69-14.7-43.08-22,19.02-10.08,37.94-20.25,56.96-30.43-19.33-9.87-38.56-19.74-57.78-29.61,13.98-7.51,28.17-15.11,42.46-22.72h0Z"/>
    <path class="cls-4" d="m157.31,120.35c24.06,12.34,48.12,24.57,72.18,36.91,18.92-10.18,37.94-20.25,56.96-30.43,14.09,7.2,28.17,14.39,42.26,21.59-33.21,17.68-66.32,35.37-99.53,53.16-52.64-26.94-105.28-53.88-157.92-80.71,33.21-17.68,66.32-35.47,99.53-53.16,14.5,7.4,28.99,14.81,43.49,22.21-19.02,10.18-37.94,20.25-56.96,30.43h0Z"/>
  </g>
  <g>
    <path class="cls-4" d="m192.78,259.25v172.52c-14.29-7.4-28.48-14.91-42.77-22.41v-62.31c-19.02-9.97-38.14-19.95-57.17-29.92v-47.09c19.02,9.97,38.14,19.95,57.17,29.92v-63.23c14.29,7.61,28.48,15.11,42.77,22.52h0Z"/>
    <path class="cls-4" d="m78.45,247.01v78.86c19.02,9.97,38.14,19.95,57.17,29.92v46.16c-33.31-17.48-66.62-34.85-99.94-52.33v-172.42c33.31,17.38,66.62,34.85,99.94,52.23v47.5c-19.12-9.97-38.14-19.95-57.17-29.92h0Z"/>
  </g>
  <g>
    <path class="cls-4" d="m421.24,177.2v172.42c-14.29,7.4-28.48,14.91-42.77,22.41v-62.31c-19.02,9.97-38.14,19.95-57.17,29.92v-47.09c19.02-9.97,38.14-19.95,57.17-29.92v-63.13c14.19-7.4,28.48-14.91,42.77-22.31h0Z"/>
    <path class="cls-4" d="m306.8,284.44v78.86l57.17-29.92v46.16c-33.31,17.38-66.62,34.85-99.94,52.23v-172.52c33.31-17.38,66.62-34.85,99.94-52.23v47.5c-19.02,9.97-38.04,19.95-57.17,29.92h0Z"/>
  </g>
</svg>